<svg width="100" height="100" viewBox="0 0 100 100" fill="none" xmlns="http://www.w3.org/2000/svg">
<circle cx="50" cy="50" r="50" fill="#342D32"/>
<g clip-path="url(#clip0_110_773)">
<path opacity="0.921" fill-rule="evenodd" clip-rule="evenodd" d="M35.1875 17.9375C35.3542 17.9375 35.5209 17.9375 35.6875 17.9375C35.9958 18.7784 36.329 19.6117 36.6875 20.4375C37.3489 20.7621 38.0155 21.0746 38.6875 21.375C39.0209 21.625 39.0209 21.875 38.6875 22.125C37.9863 22.4651 37.2988 22.8193 36.625 23.1875C36.3368 23.9098 36.066 24.639 35.8125 25.375C35.5625 25.7917 35.3125 25.7917 35.0625 25.375C34.809 24.639 34.5383 23.9098 34.25 23.1875C33.5803 22.8106 32.8928 22.4564 32.1875 22.125C31.8542 21.875 31.8542 21.625 32.1875 21.375C32.9149 21.0914 33.6024 20.7372 34.25 20.3125C34.5758 19.5222 34.8883 18.7305 35.1875 17.9375Z" fill="white"/>
<path opacity="0.9" fill-rule="evenodd" clip-rule="evenodd" d="M65.6874 21.0625C67.2725 21.3346 67.7517 22.2096 67.1249 23.6875C66.4362 24.3804 65.6653 24.4845 64.8124 24C64.1072 23.2911 64.0239 22.5202 64.5624 21.6875C64.8942 21.3763 65.2692 21.168 65.6874 21.0625Z" fill="white"/>
<path opacity="0.94" fill-rule="evenodd" clip-rule="evenodd" d="M74.0625 26.1876C74.3403 26.1473 74.5695 26.2306 74.75 26.4376C75.1459 27.4792 75.5417 28.5209 75.9375 29.5626C76.8352 30.0321 77.7518 30.4696 78.6875 30.8751C78.96 31.1773 79.0017 31.5106 78.8125 31.8751C77.7943 32.2834 76.815 32.7626 75.875 33.3126C75.5 34.3542 75.125 35.3959 74.75 36.4376C74.426 36.6228 74.1344 36.5811 73.875 36.3126C73.5 35.2709 73.125 34.2292 72.75 33.1876C71.822 32.7341 70.8845 32.2966 69.9375 31.8751C69.6042 31.5417 69.6042 31.2084 69.9375 30.8751C70.8878 30.4613 71.8253 30.0238 72.75 29.5626C73.1774 28.4249 73.6149 27.2999 74.0625 26.1876Z" fill="white"/>
<path opacity="0.935" fill-rule="evenodd" clip-rule="evenodd" d="M22.5625 28.9375C24.6447 28.7906 25.6238 29.7489 25.5 31.8125C24.895 33.3544 23.7909 33.8751 22.1875 33.375C20.9061 32.5084 20.5936 31.3625 21.25 29.9375C21.622 29.4941 22.0595 29.1607 22.5625 28.9375Z" fill="white"/>
<path opacity="0.944" fill-rule="evenodd" clip-rule="evenodd" d="M51.4375 81.9375C49.7292 81.9375 48.0209 81.9375 46.3125 81.9375C36.4012 80.5457 29.297 75.3373 25 66.3125C21.4711 57.1825 22.4711 48.5992 28 40.5625C34.7633 32.174 43.4925 28.8615 54.1875 30.625C64.3651 33.1359 70.9693 39.4068 74 49.4375C76.2928 59.8782 73.5219 68.6907 65.6875 75.875C61.5415 79.3018 56.7915 81.3227 51.4375 81.9375ZM47.9375 32.6875C57.4303 32.7544 64.5762 36.8378 69.375 44.9375C73.2313 52.6307 73.1063 60.2557 69 67.8125C63.8149 75.9368 56.3774 79.7493 46.6875 79.25C38.1513 78.1264 31.8804 73.7722 27.875 66.1875C24.6538 59.0238 24.8205 51.9404 28.375 44.9375C32.7477 37.4673 39.2684 33.3839 47.9375 32.6875Z" fill="white"/>
<path opacity="0.937" fill-rule="evenodd" clip-rule="evenodd" d="M37.3126 42.9374C40.8822 42.7102 43.1947 44.2934 44.2501 47.6874C44.3334 48.3124 44.3334 48.9374 44.2501 49.5624C43.7776 50.2987 43.1317 50.4862 42.3126 50.1249C42.1189 49.9732 41.9732 49.7857 41.8751 49.5624C41.8288 47.7784 41.0163 46.5077 39.4376 45.7499C36.5092 45.3108 34.9467 46.5815 34.7501 49.5624C34.0132 50.5112 33.2214 50.5528 32.3751 49.6874C32.1572 46.0837 33.8029 43.8337 37.3126 42.9374Z" fill="white"/>
<path opacity="0.936" fill-rule="evenodd" clip-rule="evenodd" d="M58.4376 42.9376C61.4042 42.6808 63.5917 43.8476 65.0001 46.4376C65.3965 47.3577 65.5631 48.3159 65.5001 49.3126C65.0282 50.3169 64.2991 50.5461 63.3126 50.0001C63.1625 49.8872 63.0582 49.7414 63.0001 49.5626C62.8035 46.5817 61.241 45.3109 58.3126 45.7501C56.732 46.5127 55.9195 47.7834 55.8751 49.5626C55.5325 50.1774 55.0116 50.4066 54.3126 50.2501C54.0191 50.2068 53.79 50.0609 53.6251 49.8126C53.2895 46.1683 54.8936 43.8766 58.4376 42.9376Z" fill="white"/>
<path opacity="0.949" fill-rule="evenodd" clip-rule="evenodd" d="M31.6875 55.1875C43.1459 55.1666 54.6042 55.1875 66.0625 55.25C66.7569 55.621 67.0485 56.2044 66.9375 57C66.4849 63.7846 63.3599 68.9096 57.5625 72.375C51.773 75.2915 45.9814 75.2915 40.1875 72.375C34.067 68.7409 30.9629 63.345 30.875 56.1875C31.0346 55.7578 31.3054 55.4244 31.6875 55.1875ZM33.5625 57.8125C33.8717 61.2645 35.1842 64.2645 37.5 66.8125C38.099 65.9218 38.8281 65.1509 39.6875 64.5C43.6429 61.7758 47.9762 60.9424 52.6875 62C55.7983 62.7098 58.3191 64.3139 60.25 66.8125C62.6143 64.2853 63.9268 61.2853 64.1875 57.8125C53.9791 57.8125 43.7709 57.8125 33.5625 57.8125ZM47.6875 64.1875C46.9533 64.3218 46.2032 64.4676 45.4375 64.625C42.9627 65.2698 40.9627 66.6031 39.4375 68.625C40.4373 69.417 41.5205 70.0838 42.6875 70.625C48.2781 72.8376 53.4865 72.171 58.3125 68.625C58.0834 68.3125 57.8541 68 57.625 67.6875C54.8377 65.0983 51.5252 63.9316 47.6875 64.1875Z" fill="white"/>
</g>
<defs>
<clipPath id="clip0_110_773">
<rect width="64" height="64" fill="white" transform="translate(18 18)"/>
</clipPath>
</defs>
</svg>
