<svg width="100" height="100" viewBox="0 0 100 100" fill="none" xmlns="http://www.w3.org/2000/svg">
<circle cx="50" cy="50" r="50" fill="#342D32"/>
<g clip-path="url(#clip0_110_775)">
<path opacity="0.938" fill-rule="evenodd" clip-rule="evenodd" d="M51.0626 17.9375C52.0209 17.9375 52.9792 17.9375 53.9376 17.9375C55.4537 18.3885 56.6829 19.2635 57.6251 20.5625C59.8368 23.6318 60.1493 26.8818 58.5626 30.3125C60.9371 30.4274 63.3121 30.5315 65.6876 30.625C68.5729 31.8545 69.5729 33.9795 68.6876 37C70.4561 39.3189 70.3311 41.5273 68.3126 43.625C69.0774 46.179 68.2441 48.0124 65.8126 49.125C66.3347 51.4139 65.5013 52.9972 63.3126 53.875C57.7767 54.0807 52.2349 54.1224 46.6876 54C46.1691 53.9174 45.6691 53.7716 45.1876 53.5625C45.0883 54.3669 44.6717 54.9294 43.9376 55.25C40.0209 55.3334 36.1042 55.3334 32.1876 55.25C31.0417 54.9375 30.3126 54.2084 30.0001 53.0625C29.9792 49.8334 29.9584 46.6041 29.9376 43.375C29.9189 39.9732 29.9814 36.5775 30.1251 33.1875C30.4529 32.3261 31.0571 31.7636 31.9376 31.5C33.9954 31.3599 36.0579 31.2974 38.1251 31.3125C39.9376 31.3334 41.7501 31.3541 43.5626 31.375C44.7141 31.6941 45.2349 32.465 45.1251 33.6875C45.6204 33.55 46.0997 33.3625 46.5626 33.125C48.3569 31.0166 49.7528 28.6624 50.7501 26.0625C50.8261 25.6478 50.8886 25.2312 50.9376 24.8125C50.6229 23.1975 50.3729 21.5725 50.1876 19.9375C50.1466 19.1046 50.4382 18.438 51.0626 17.9375ZM52.3126 20.0625C53.4817 19.959 54.4817 20.3132 55.3126 21.125C56.2799 22.3304 56.9674 23.6846 57.3751 25.1875C57.4584 25.8542 57.4584 26.5208 57.3751 27.1875C57.0412 28.3767 56.6453 29.5434 56.1876 30.6875C56.2511 31.5463 56.6678 32.1504 57.4376 32.5C60.0648 32.5239 62.6898 32.6071 65.3126 32.75C67.0159 33.8342 67.3284 35.2301 66.2501 36.9375C66.1667 37.2291 66.1667 37.5209 66.2501 37.8125C66.7474 38.2685 67.2057 38.7685 67.6251 39.3125C67.8936 39.998 67.8519 40.6646 67.5001 41.3125C66.9481 41.8149 66.4063 42.3149 65.8751 42.8125C65.7917 43.0625 65.7917 43.3125 65.8751 43.5625C66.8594 44.8966 66.6719 46.0425 65.3126 47C64.7371 47.1326 64.1537 47.2159 63.5626 47.25C62.7351 47.9341 62.7558 48.6216 63.6251 49.3125C64.1189 50.5127 63.7648 51.3669 62.5626 51.875C57.3542 51.9584 52.1459 51.9584 46.9376 51.875C46.2623 51.756 45.6582 51.4852 45.1251 51.0625C45.0417 46.0209 45.0417 40.9791 45.1251 35.9375C46.5132 35.712 47.6798 35.087 48.6251 34.0625C49.9817 32.2459 51.1899 30.3292 52.2501 28.3125C52.7357 27.1969 53.0066 26.0302 53.0626 24.8125C52.8282 23.2246 52.5782 21.6413 52.3126 20.0625ZM32.8126 33.4375C36.1876 33.4375 39.5626 33.4375 42.9376 33.4375C42.9376 40.0209 42.9376 46.6041 42.9376 53.1875C39.4789 53.2084 36.0207 53.1875 32.5626 53.125C32.4481 53.0783 32.3438 53.0158 32.2501 52.9375C32.0429 46.6562 32.0013 40.3645 32.1251 34.0625C32.2634 33.7359 32.4926 33.5275 32.8126 33.4375Z" fill="white"/>
<path opacity="0.934" fill-rule="evenodd" clip-rule="evenodd" d="M49.5624 55.6876C50.1003 55.5996 50.5378 55.7663 50.8749 56.1876C51.637 58.0242 52.4495 59.8367 53.3124 61.6251C55.2271 61.8498 57.1438 62.0582 59.0624 62.2501C59.9816 62.5908 60.2108 63.1951 59.7499 64.0626C58.2489 65.3763 56.7696 66.7097 55.3124 68.0626C55.7781 69.9883 56.1949 71.9258 56.5624 73.8751C56.4501 74.7657 55.9501 75.0991 55.0624 74.8751C53.354 73.896 51.6458 72.9167 49.9374 71.9376C48.229 72.9167 46.5208 73.896 44.8124 74.8751C43.6665 75.0626 43.1874 74.5835 43.3749 73.4376C43.7514 71.6402 44.1471 69.8486 44.5624 68.0626C43.2093 66.8138 41.8343 65.5847 40.4374 64.3751C39.626 63.6836 39.626 63.0168 40.4374 62.3751C42.4745 62.0978 44.5161 61.8478 46.5624 61.6251C47.4253 59.8367 48.2378 58.0242 48.9999 56.1876C49.1745 55.9913 49.362 55.8246 49.5624 55.6876ZM49.8124 59.5626C49.9219 59.5462 50.0053 59.5878 50.0624 59.6876C50.5711 60.8595 51.0919 62.0261 51.6249 63.1876C51.7708 63.3335 51.9165 63.4792 52.0624 63.6251C53.5178 63.8165 54.9761 63.9831 56.4374 64.1251C55.3749 65.1042 54.3124 66.0835 53.2499 67.0626C53.1748 67.2672 53.1123 67.4755 53.0624 67.6876C53.4003 69.0322 53.6503 70.3656 53.8124 71.6876C52.5499 70.925 51.2583 70.2166 49.9374 69.5626C48.6165 70.2166 47.3249 70.925 46.0624 71.6876C46.2344 70.3465 46.4844 68.9923 46.8124 67.6251C46.7499 67.4376 46.6874 67.2501 46.6249 67.0626C45.5624 66.0835 44.4999 65.1042 43.4374 64.1251C44.8986 63.9831 46.357 63.8165 47.8124 63.6251C48.1381 63.3828 48.3673 63.0703 48.4999 62.6876C48.9748 61.6582 49.4123 60.6165 49.8124 59.5626Z" fill="white"/>
<path opacity="0.935" fill-rule="evenodd" clip-rule="evenodd" d="M38.8125 81.9375C38.4792 81.9375 38.1459 81.9375 37.8125 81.9375C36.1433 80.925 34.4558 79.925 32.75 78.9375C31.0443 79.925 29.3568 80.925 27.6875 81.9375C27.3542 81.9375 27.0209 81.9375 26.6875 81.9375C26.2898 81.6825 26.1232 81.3075 26.1875 80.8125C26.5994 78.858 26.9536 76.8997 27.25 74.9375C25.7939 73.669 24.3564 72.3772 22.9375 71.0625C22.5217 70.367 22.6467 69.8045 23.3125 69.375C25.3644 69.154 27.4061 68.8833 29.4375 68.5625C30.25 66.7709 31.0625 64.9791 31.875 63.1875C32.4584 62.6875 33.0417 62.6875 33.625 63.1875C34.4375 64.9791 35.25 66.7709 36.0625 68.5625C38.0942 68.8825 40.1358 69.1533 42.1875 69.375C42.8262 69.7958 42.972 70.3583 42.625 71.0625C41.1667 72.3541 39.7084 73.6459 38.25 74.9375C38.5564 76.9485 38.9522 78.9485 39.4375 80.9375C39.3509 81.3638 39.1425 81.6971 38.8125 81.9375ZM36.6875 78.6875C35.7574 78.2013 34.8408 77.6805 33.9375 77.125C33.2515 76.61 32.5432 76.5682 31.8125 77C30.8542 77.5625 29.8959 78.125 28.9375 78.6875C28.8959 78.6041 28.8542 78.5209 28.8125 78.4375C29.1965 77.0399 29.4256 75.6233 29.5 74.1875C28.5191 73.1234 27.4566 72.1442 26.3125 71.25C27.7644 71.0238 29.2227 70.8154 30.6875 70.625C30.8334 70.4791 30.9792 70.3334 31.125 70.1875C31.6667 68.9375 32.2084 67.6875 32.75 66.4375C33.191 67.3855 33.6077 68.3439 34 69.3125C34.1925 69.8024 34.4634 70.2399 34.8125 70.625C36.2774 70.8154 37.7357 71.0238 39.1875 71.25C38.0434 72.1442 36.9809 73.1234 36 74.1875C35.9167 74.5209 35.9167 74.8541 36 75.1875C36.2697 76.3483 36.4989 77.5149 36.6875 78.6875Z" fill="white"/>
<path opacity="0.934" fill-rule="evenodd" clip-rule="evenodd" d="M73.1874 81.9375C72.854 81.9375 72.5208 81.9375 72.1874 81.9375C70.5181 80.925 68.8306 79.925 67.1249 78.9375C65.4191 79.925 63.7316 80.925 62.0624 81.9375C61.729 81.9375 61.3958 81.9375 61.0624 81.9375C60.7324 81.6971 60.524 81.3638 60.4374 80.9375C60.9228 78.9485 61.3185 76.9485 61.6249 74.9375C60.1665 73.6459 58.7083 72.3541 57.2499 71.0625C56.9029 70.3583 57.0488 69.7958 57.6874 69.375C59.7393 69.154 61.7809 68.8833 63.8124 68.5625C64.6249 66.7709 65.4374 64.9791 66.2499 63.1875C66.8333 62.6875 67.4165 62.6875 67.9999 63.1875C68.8124 64.9791 69.6249 66.7709 70.4374 68.5625C72.469 68.8825 74.5106 69.1533 76.5624 69.375C77.2283 69.8045 77.3533 70.367 76.9374 71.0625C75.5185 72.3772 74.081 73.669 72.6249 74.9375C72.9534 76.8932 73.3075 78.8515 73.6874 80.8125C73.7518 81.3075 73.5851 81.6825 73.1874 81.9375ZM63.1874 78.6875C63.376 77.5149 63.6053 76.3483 63.8749 75.1875C63.9583 74.8541 63.9583 74.5209 63.8749 74.1875C62.894 73.1234 61.8315 72.1442 60.6874 71.25C62.1393 71.0238 63.5975 70.8154 65.0624 70.625C65.4115 70.2399 65.6824 69.8024 65.8749 69.3125C66.2673 68.3439 66.6839 67.3855 67.1249 66.4375C67.6665 67.6875 68.2083 68.9375 68.7499 70.1875C68.8958 70.3334 69.0415 70.4791 69.1874 70.625C70.6523 70.8154 72.1105 71.0238 73.5624 71.25C72.4183 72.1442 71.3558 73.1234 70.3749 74.1875C70.4493 75.6233 70.6785 77.0399 71.0624 78.4375C71.0208 78.5209 70.979 78.6041 70.9374 78.6875C69.979 78.125 69.0208 77.5625 68.0624 77C67.3318 76.5682 66.6234 76.61 65.9374 77.125C65.0341 77.6805 64.1175 78.2013 63.1874 78.6875Z" fill="white"/>
</g>
<defs>
<clipPath id="clip0_110_775">
<rect width="64" height="64" fill="white" transform="translate(18 18)"/>
</clipPath>
</defs>
</svg>
