<svg width="100" height="100" viewBox="0 0 100 100" fill="none" xmlns="http://www.w3.org/2000/svg">
<circle cx="50" cy="50" r="50" fill="#342D32"/>
<g clip-path="url(#clip0_110_772)">
<path opacity="0.946" fill-rule="evenodd" clip-rule="evenodd" d="M49.3125 17.9375C49.7291 17.9375 50.1459 17.9375 50.5625 17.9375C58.754 22.8158 67.4623 26.545 76.6875 29.125C76.9868 29.369 77.1743 29.6815 77.25 30.0625C77.3334 35.1875 77.3334 40.3125 77.25 45.4375C76.4081 60.4837 69.554 71.8379 56.6875 79.5C54.8524 80.5479 52.9358 81.3604 50.9375 81.9375C50.2709 81.9375 49.6041 81.9375 48.9375 81.9375C44.5358 80.4869 40.5774 78.2576 37.0625 75.25C27.8926 67.4716 23.0801 57.5341 22.625 45.4375C22.5417 40.3125 22.5417 35.1875 22.625 30.0625C22.7008 29.6815 22.8883 29.369 23.1875 29.125C32.4154 26.5513 41.1238 22.8221 49.3125 17.9375ZM49.8125 20.9375C57.5919 25.389 65.8003 28.8473 74.4375 31.3125C74.4584 36.4794 74.4375 41.646 74.375 46.8125C73.1209 60.1408 66.7668 70.2033 55.3125 77C53.6305 78.008 51.8389 78.7371 49.9375 79.1875C47.2038 78.4039 44.6621 77.2164 42.3125 75.625C32.1919 68.7015 26.5878 59.0973 25.5 46.8125C25.4375 41.646 25.4167 36.4794 25.4375 31.3125C34.0308 28.9105 42.1558 25.4522 49.8125 20.9375Z" fill="white"/>
<path opacity="0.9" fill-rule="evenodd" clip-rule="evenodd" d="M40.0624 28.6874C41.5544 28.5454 42.1586 29.2121 41.8749 30.6874C41.2398 31.499 40.4689 31.6449 39.5624 31.1249C38.9429 30.1375 39.1096 29.325 40.0624 28.6874Z" fill="white"/>
<path opacity="0.951" fill-rule="evenodd" clip-rule="evenodd" d="M36.6875 30.1875C38.1019 30.5775 38.4561 31.4109 37.75 32.6875C35.4834 33.6724 33.1709 34.5474 30.8125 35.3125C30.7084 36.8942 30.6459 38.4775 30.625 40.0625C29.6898 41.2402 28.8148 41.1986 28 39.9375C27.9167 37.8959 27.9167 35.8541 28 33.8125C28.0983 33.4271 28.3274 33.1564 28.6875 33C31.4028 32.1439 34.0695 31.2064 36.6875 30.1875Z" fill="white"/>
<path opacity="0.943" fill-rule="evenodd" clip-rule="evenodd" d="M61.6876 37.1875C64.6287 37.2329 66.2953 38.712 66.6876 41.625C66.6192 42.5448 66.3483 43.399 65.8751 44.1875C60.1911 49.9965 54.4618 55.7674 48.6876 61.5C46.9673 62.8577 45.1341 63.0244 43.1876 62C40.212 59.1494 37.2745 56.2535 34.3751 53.3125C33.0693 51.6295 32.9026 49.8379 33.8751 47.9375C35.3461 45.9705 37.2418 45.408 39.5626 46.25C39.896 46.4584 40.2292 46.6666 40.5626 46.875C42.2501 48.5625 43.9376 50.25 45.6251 51.9375C50.2292 47.3334 54.8335 42.7291 59.4376 38.125C60.1277 37.633 60.8777 37.3205 61.6876 37.1875ZM61.6876 40.0625C61.5501 40.1948 61.3833 40.299 61.1876 40.375C56.2258 45.3785 51.2258 50.3369 46.1876 55.25C45.7132 55.3546 45.255 55.313 44.8126 55.125C42.6801 52.909 40.4718 50.784 38.1876 48.75C36.4977 48.6481 35.8518 49.419 36.2501 51.0625C38.934 53.8715 41.6632 56.6424 44.4376 59.375C44.9551 59.7803 45.5383 59.9053 46.1876 59.75C52.0383 54.0243 57.8508 48.2535 63.6251 42.4375C64.0171 40.8081 63.3713 40.0165 61.6876 40.0625Z" fill="white"/>
<path opacity="0.938" fill-rule="evenodd" clip-rule="evenodd" d="M64.8125 61.0625C66.5452 61.189 67.0244 62.0223 66.25 63.5625C63.9992 66.8138 61.3117 69.6679 58.1875 72.125C57.5291 72.5341 56.8625 72.5341 56.1875 72.125C55.7735 71.5599 55.711 70.9557 56 70.3125C59.1924 67.829 61.9007 64.9124 64.125 61.5625C64.3515 61.3779 64.5806 61.2113 64.8125 61.0625Z" fill="white"/>
<path opacity="0.899" fill-rule="evenodd" clip-rule="evenodd" d="M53.3126 71.9375C54.8046 71.7005 55.4505 72.3255 55.2501 73.8125C54.8347 74.6135 54.189 74.8844 53.3126 74.625C52.1513 73.7352 52.1513 72.8393 53.3126 71.9375Z" fill="white"/>
</g>
<defs>
<clipPath id="clip0_110_772">
<rect width="64" height="64" fill="white" transform="translate(18 18)"/>
</clipPath>
</defs>
</svg>
