<svg width="100" height="100" viewBox="0 0 100 100" fill="none" xmlns="http://www.w3.org/2000/svg">
<circle cx="50" cy="50" r="50" fill="#342D32"/>
<g clip-path="url(#clip0_110_774)">
<path opacity="0.942" fill-rule="evenodd" clip-rule="evenodd" d="M81.9375 50.9375C81.9375 55.0625 81.9375 59.1875 81.9375 63.3125C81.7487 63.4795 81.5404 63.6254 81.3125 63.75C80.1049 63.8125 78.8965 63.8333 77.6875 63.8125C77.5243 67.1639 75.8159 69.2681 72.5625 70.125C68.5752 70.5103 66.0545 68.7811 65 64.9375C64.9378 64.5648 64.9169 64.1898 64.9375 63.8125C57.4375 63.8125 49.9375 63.8125 42.4375 63.8125C42.2717 67.1661 40.5634 69.2703 37.3125 70.125C33.378 70.5205 30.8571 68.833 29.75 65.0625C29.6877 64.6479 29.6669 64.2313 29.6875 63.8125C27.6871 63.8334 25.6871 63.8125 23.6875 63.75C23.0112 63.5321 22.532 63.0946 22.25 62.4375C22.1875 61.4801 22.1667 60.5218 22.1875 59.5625C20.9784 59.5833 19.7701 59.5625 18.5625 59.5C18.3346 59.3754 18.1263 59.2295 17.9375 59.0625C17.9375 58.6875 17.9375 58.3125 17.9375 57.9375C18.1263 57.7705 18.3346 57.6246 18.5625 57.5C22.0208 57.4166 25.4792 57.4166 28.9375 57.5C29.4047 57.6749 29.6131 58.0083 29.5625 58.5C29.6131 58.9918 29.4047 59.3251 28.9375 59.5C27.3964 59.5625 25.8547 59.5834 24.3125 59.5625C24.3125 60.2709 24.3125 60.9791 24.3125 61.6875C26.2292 61.6875 28.1458 61.6875 30.0625 61.6875C31.1206 58.9655 33.1206 57.5488 36.0625 57.4375C38.9216 57.5745 40.9216 58.9495 42.0625 61.5625C48.9786 61.6875 55.8954 61.7291 62.8125 61.6875C62.7916 59.0205 62.8125 56.3539 62.875 53.6875C63.3464 53.1515 63.9089 53.0474 64.5625 53.375C64.6825 53.5524 64.7866 53.7399 64.875 53.9375C64.9375 56.5205 64.9584 59.1039 64.9375 61.6875C65.0844 61.7149 65.2094 61.6733 65.3125 61.5625C66.8116 58.2755 69.3534 56.963 72.9375 57.625C75.0472 58.214 76.5056 59.5265 77.3125 61.5625C78.1418 61.6871 78.975 61.7288 79.8125 61.6875C79.8125 60.2709 79.8125 58.8541 79.8125 57.4375C77.6005 57.7193 76.2048 56.8026 75.625 54.6875C75.5416 53.7291 75.5416 52.7709 75.625 51.8125C75.6591 51.5839 75.7634 51.3964 75.9375 51.25C77.1751 51.0895 78.4251 51.0061 79.6875 51C79.1711 49.7755 78.2545 49.0671 76.9375 48.875C72.9378 48.8125 68.9378 48.7916 64.9375 48.8125C64.9581 49.2728 64.9374 49.731 64.875 50.1875C64.8409 50.4161 64.7366 50.6036 64.5625 50.75C64.1623 50.9354 63.7455 50.9771 63.3125 50.875C63.0834 50.8125 62.9375 50.6666 62.875 50.4375C62.8125 44.2293 62.7916 38.021 62.8125 31.8125C49.9791 31.8125 37.1459 31.8125 24.3125 31.8125C24.3333 37.9376 24.3125 44.0626 24.25 50.1875C24.1096 50.7274 23.7555 50.9774 23.1875 50.9375C22.7761 50.9651 22.4636 50.7984 22.25 50.4375C22.1667 43.9791 22.1667 37.5209 22.25 31.0625C22.5208 30.4583 22.9583 30.0208 23.5625 29.75C36.8541 29.6667 50.1459 29.6667 63.4375 29.75C64.0716 29.9257 64.5091 30.3215 64.75 30.9375C64.9204 31.9286 64.9829 32.9286 64.9375 33.9375C67.7295 33.9166 70.5211 33.9375 73.3125 34C75.2503 34.4795 76.3545 35.7086 76.625 37.6875C76.7084 38.3125 76.7084 38.9375 76.625 39.5625C76.4159 39.8751 76.1866 40.1668 75.9375 40.4375C76.4584 42.5209 76.9791 44.6041 77.5 46.6875C79.8268 47.2439 81.3059 48.6605 81.9375 50.9375ZM64.9375 36.0625C67.6045 36.0416 70.2711 36.0625 72.9375 36.125C73.8609 36.4448 74.4026 37.0905 74.5625 38.0625C71.3553 38.1875 68.1469 38.2291 64.9375 38.1875C64.9375 37.4791 64.9375 36.7709 64.9375 36.0625ZM64.9375 40.3125C67.8554 40.2709 70.772 40.3125 73.6875 40.4375C74.2201 42.5055 74.7617 44.568 75.3125 46.625C71.8544 46.6875 68.3961 46.7084 64.9375 46.6875C64.9375 44.5625 64.9375 42.4375 64.9375 40.3125ZM77.6875 53.1875C78.3959 53.1875 79.1041 53.1875 79.8125 53.1875C79.8125 53.8959 79.8125 54.6041 79.8125 55.3125C78.1459 55.5625 77.4375 54.8541 77.6875 53.1875ZM35.3125 59.5625C37.8909 59.4239 39.5368 60.5905 40.25 63.0625C40.3131 66.5826 38.5839 68.2285 35.0625 68C32.6553 67.1655 31.5927 65.478 31.875 62.9375C32.3479 61.1104 33.4936 59.9854 35.3125 59.5625ZM70.5625 59.5625C73.071 59.431 74.7169 60.556 75.5 62.9375C75.642 66.4621 73.9545 68.1496 70.4375 68C67.9421 67.2414 66.8379 65.5539 67.125 62.9375C67.6818 61.1931 68.8276 60.0681 70.5625 59.5625Z" fill="white"/>
<path opacity="0.907" fill-rule="evenodd" clip-rule="evenodd" d="M51.5626 39.3124C52.9469 39.2092 53.3844 39.7926 52.8751 41.0624C49.6007 44.3784 46.2882 47.6493 42.9376 50.8749C42.5046 50.9771 42.0879 50.9353 41.6876 50.7499C39.7881 48.8922 37.934 46.9963 36.1251 45.0624C35.9909 43.7433 36.5534 43.3058 37.8126 43.7499C39.3352 45.2934 40.8769 46.8142 42.4376 48.3124C45.4852 45.3064 48.5269 42.3064 51.5626 39.3124Z" fill="white"/>
<path opacity="0.932" fill-rule="evenodd" clip-rule="evenodd" d="M20.5625 53.1875C25.1877 53.1666 29.8127 53.1875 34.4375 53.25C34.9735 53.7214 35.0776 54.2839 34.75 54.9375C34.5726 55.0575 34.3851 55.1616 34.1875 55.25C29.7291 55.3334 25.2708 55.3334 20.8125 55.25C20.2726 55.1096 20.0226 54.7555 20.0625 54.1875C20.0833 54.0209 20.1041 53.8541 20.125 53.6875C20.2969 53.5369 20.4428 53.3703 20.5625 53.1875Z" fill="white"/>
<path opacity="0.934" fill-rule="evenodd" clip-rule="evenodd" d="M44.1874 57.4375C49.4375 57.4166 54.6875 57.4375 59.9374 57.5C60.4046 57.6749 60.6129 58.0083 60.5624 58.5C60.6129 58.9918 60.4046 59.3251 59.9374 59.5C54.6874 59.5834 49.4374 59.5834 44.1874 59.5C43.5488 59.0793 43.4029 58.5168 43.7499 57.8125C43.893 57.6705 44.0389 57.5455 44.1874 57.4375Z" fill="white"/>
<path opacity="0.93" fill-rule="evenodd" clip-rule="evenodd" d="M35.5625 61.6876C36.8529 61.5511 37.707 62.0927 38.125 63.3126C38.2447 65.2346 37.3489 66.0888 35.4375 65.8751C34.0572 65.2792 33.6197 64.2583 34.125 62.8126C34.4604 62.2403 34.9397 61.8653 35.5625 61.6876Z" fill="white"/>
<path opacity="0.93" fill-rule="evenodd" clip-rule="evenodd" d="M70.8125 61.6875C72.9438 61.6997 73.7563 62.7414 73.25 64.8125C72.5318 65.899 71.5527 66.2115 70.3125 65.75C69.0164 64.7535 68.8498 63.5869 69.8125 62.25C70.1374 62.0256 70.4708 61.8381 70.8125 61.6875Z" fill="white"/>
</g>
<defs>
<clipPath id="clip0_110_774">
<rect width="64" height="64" fill="white" transform="translate(18 18)"/>
</clipPath>
</defs>
</svg>
