<svg width="28" height="29" viewBox="0 0 28 29" fill="none" xmlns="http://www.w3.org/2000/svg">
<g clip-path="url(#clip0_2_1430)">
<path opacity="0.99" fill-rule="evenodd" clip-rule="evenodd" d="M2.05078 0.472656C5.04037 0.472656 8.02993 0.472656 11.0195 0.472656C12.0942 0.772626 12.7778 1.46533 13.0703 2.55078C13.1068 5.54037 13.1068 8.52993 13.0703 11.5195C12.7877 12.6041 12.1041 13.2877 11.0195 13.5703C8.02993 13.6068 5.04037 13.6068 2.05078 13.5703C0.965333 13.2778 0.272626 12.5942 -0.0273438 11.5195C-0.0273438 8.52993 -0.0273438 5.54037 -0.0273438 2.55078C0.282552 1.47526 0.975259 0.782552 2.05078 0.472656ZM2.59766 2.22266C5.22272 2.21354 7.84771 2.22266 10.4727 2.25C10.974 2.3138 11.2565 2.59635 11.3203 3.09766C11.3568 5.72266 11.3568 8.34766 11.3203 10.9727C11.2565 11.474 10.974 11.7565 10.4727 11.8203C7.84766 11.8568 5.22266 11.8568 2.59766 11.8203C2.09635 11.7565 1.8138 11.474 1.75 10.9727C1.71354 8.34766 1.71354 5.72266 1.75 3.09766C1.8236 2.59576 2.10615 2.30409 2.59766 2.22266Z" fill="white"/>
<path opacity="0.99" fill-rule="evenodd" clip-rule="evenodd" d="M16.9258 0.472656C19.9154 0.472656 22.9049 0.472656 25.8945 0.472656C26.9701 0.782552 27.6628 1.47526 27.9727 2.55078C27.9727 5.54037 27.9727 8.52993 27.9727 11.5195C27.6727 12.5942 26.98 13.2778 25.8945 13.5703C22.9049 13.6068 19.9154 13.6068 16.9258 13.5703C15.8412 13.2877 15.1576 12.6041 14.875 11.5195C14.8385 8.52993 14.8385 5.54037 14.875 2.55078C15.1675 1.46533 15.8511 0.772626 16.9258 0.472656ZM17.4727 2.22266C20.0977 2.21354 22.7227 2.22266 25.3477 2.25C25.849 2.3138 26.1315 2.59635 26.1953 3.09766C26.2318 5.72266 26.2318 8.34766 26.1953 10.9727C26.1315 11.474 25.849 11.7565 25.3477 11.8203C22.7227 11.8568 20.0977 11.8568 17.4727 11.8203C16.9713 11.7565 16.6888 11.474 16.625 10.9727C16.5885 8.34766 16.5885 5.72266 16.625 3.09766C16.6986 2.59576 16.9812 2.30409 17.4727 2.22266Z" fill="white"/>
<path opacity="0.99" fill-rule="evenodd" clip-rule="evenodd" d="M11.0195 28.4727C8.02993 28.4727 5.04037 28.4727 2.05078 28.4727C0.975259 28.1628 0.282552 27.4701 -0.0273438 26.3945C-0.0273438 23.4049 -0.0273438 20.4154 -0.0273438 17.4258C0.272626 16.3511 0.965333 15.6675 2.05078 15.375C5.04037 15.3385 8.02993 15.3385 11.0195 15.375C12.1041 15.6576 12.7877 16.3412 13.0703 17.4258C13.1068 20.4154 13.1068 23.4049 13.0703 26.3945C12.7778 27.48 12.0942 28.1727 11.0195 28.4727ZM2.59766 17.0977C5.22272 17.0885 7.84771 17.0977 10.4727 17.125C10.974 17.1888 11.2565 17.4713 11.3203 17.9727C11.3568 20.5977 11.3568 23.2227 11.3203 25.8477C11.2565 26.349 10.974 26.6315 10.4727 26.6953C7.84766 26.7318 5.22266 26.7318 2.59766 26.6953C2.09635 26.6315 1.8138 26.349 1.75 25.8477C1.71354 23.2227 1.71354 20.5977 1.75 17.9727C1.8236 17.4707 2.10615 17.1791 2.59766 17.0977Z" fill="white"/>
<path opacity="0.99" fill-rule="evenodd" clip-rule="evenodd" d="M27.9727 17.4258C27.9727 20.4154 27.9727 23.4049 27.9727 26.3945C27.6628 27.4701 26.9701 28.1628 25.8945 28.4727C22.9049 28.4727 19.9154 28.4727 16.9258 28.4727C15.8511 28.1727 15.1675 27.48 14.875 26.3945C14.8385 23.4049 14.8385 20.4154 14.875 17.4258C15.1576 16.3412 15.8412 15.6576 16.9258 15.375C19.9154 15.3385 22.9049 15.3385 25.8945 15.375C26.98 15.6675 27.6727 16.3511 27.9727 17.4258ZM17.4727 17.0977C20.0977 17.0885 22.7227 17.0977 25.3477 17.125C25.849 17.1888 26.1315 17.4713 26.1953 17.9727C26.2318 20.5977 26.2318 23.2227 26.1953 25.8477C26.1315 26.349 25.849 26.6315 25.3477 26.6953C22.7227 26.7318 20.0977 26.7318 17.4727 26.6953C16.9713 26.6315 16.6888 26.349 16.625 25.8477C16.5885 23.2227 16.5885 20.5977 16.625 17.9727C16.6986 17.4707 16.9812 17.1791 17.4727 17.0977Z" fill="white"/>
</g>
<defs>
<clipPath id="clip0_2_1430">
<rect width="28" height="28" fill="white" transform="translate(0 0.5)"/>
</clipPath>
</defs>
</svg>
