<svg width="36" height="36" viewBox="0 0 36 36" fill="none" xmlns="http://www.w3.org/2000/svg">
<g clip-path="url(#clip0_117_774)">
<path opacity="0.992" fill-rule="evenodd" clip-rule="evenodd" d="M16.418 -0.0351562C17.4492 -0.0351562 18.4804 -0.0351562 19.5117 -0.0351562C26.5617 0.846619 31.589 4.50287 34.5938 10.9336C35.3177 12.7043 35.7747 14.5325 35.9648 16.418C35.9648 17.4492 35.9648 18.4804 35.9648 19.5117C35.0831 26.5617 31.4268 31.589 24.9961 34.5938C23.2253 35.3177 21.3972 35.7747 19.5117 35.9648C18.4804 35.9648 17.4492 35.9648 16.418 35.9648C9.36802 35.0831 4.34067 31.4268 1.33594 24.9961C0.611995 23.2253 0.154964 21.3972 -0.0351562 19.5117C-0.0351562 18.4804 -0.0351562 17.4492 -0.0351562 16.418C0.846619 9.36802 4.50287 4.34067 10.9336 1.33594C12.7043 0.611995 14.5325 0.154964 16.418 -0.0351562ZM26.4023 10.1602C27.8548 10.1711 28.5462 10.8977 28.4766 12.3398C28.4021 12.5591 28.3084 12.77 28.1953 12.9727C24.1933 17.0452 20.1268 21.0412 15.9961 24.9609C15.3461 25.2351 14.7367 25.1648 14.168 24.75C12.1289 22.8985 10.0898 21.0469 8.05078 19.1953C7.20717 18.2803 7.20717 17.3663 8.05078 16.4531C8.8162 15.9228 9.56616 15.9462 10.3008 16.5234C11.918 18.0117 13.5352 19.5 15.1523 20.9883C18.6553 17.5205 22.1475 14.04 25.6289 10.5469C25.8743 10.3773 26.1321 10.2484 26.4023 10.1602Z" fill="#E30613"/>
</g>
<defs>
<clipPath id="clip0_117_774">
<rect width="36" height="36" fill="white"/>
</clipPath>
</defs>
</svg>
