<svg width="46" height="58" viewBox="0 0 46 58" fill="none" xmlns="http://www.w3.org/2000/svg">
<path opacity="0.987" fill-rule="evenodd" clip-rule="evenodd" d="M20.4054 0.666614C29.9545 0.121191 37.2654 3.83724 42.3382 11.8148C45.4075 17.4681 46.0742 23.3961 44.3382 29.5987C42.7441 34.6748 40.3441 39.3199 37.1383 43.5339C33.009 48.9935 28.2312 53.8155 22.8053 57.9999C15.4765 52.4096 9.45452 45.6853 4.73902 37.8271C2.494 33.9985 1.07175 29.8843 0.472441 25.4845C-0.181692 15.7925 3.61824 8.42673 11.8722 3.38729C14.5615 1.94496 17.4058 1.03807 20.4054 0.666614ZM22.9386 12.3456C29.3356 13.0505 32.8022 16.5896 33.3384 22.9629C33.2123 27.2646 31.2567 30.4278 27.4719 32.4521C22.8222 34.3755 18.6667 33.6014 15.0055 30.1296C11.8165 26.1562 11.4165 21.9093 13.8055 17.3888C16.0064 14.203 19.0507 12.522 22.9386 12.3456Z" fill="#E30613"/>
</svg>
