<svg width="45" height="58" viewBox="0 0 45 58" fill="none" xmlns="http://www.w3.org/2000/svg">
<path opacity="0.987" fill-rule="evenodd" clip-rule="evenodd" d="M20.005 0.0523562C29.5541 -0.493067 36.865 3.22298 41.9378 11.2005C45.0071 16.8538 45.6738 22.7818 43.9378 28.9844C42.3437 34.0606 39.9438 38.7056 36.738 42.9196C32.6086 48.3793 27.8308 53.2012 22.4049 57.3857C15.0761 51.7954 9.05413 45.0711 4.33863 37.2128C2.09361 33.3842 0.671358 29.27 0.0720505 24.8702C-0.582083 15.1783 3.21785 7.81247 11.4718 2.77303C14.1611 1.3307 17.0054 0.423815 20.005 0.0523562ZM22.5383 11.7314C28.9352 12.4362 32.4018 15.9754 32.938 22.3486C32.8119 26.6504 30.8563 29.8135 27.0715 31.8378C22.4219 33.7613 18.2663 32.9871 14.6051 29.5153C11.4161 25.5419 11.0161 21.295 13.4051 16.7746C15.606 13.5887 18.6503 11.9077 22.5383 11.7314Z" fill="#0091D6"/>
</svg>
