<svg width="28" height="29" viewBox="0 0 28 29" fill="none" xmlns="http://www.w3.org/2000/svg">
<g clip-path="url(#clip0_2_1446)">
<path opacity="0.966" fill-rule="evenodd" clip-rule="evenodd" d="M5.27735 0.472656C9.61587 0.472656 13.9544 0.472656 18.293 0.472656C20.3115 2.40909 22.3076 4.37784 24.2813 6.37891C24.3359 6.47007 24.3906 6.56118 24.4453 6.65234C24.4818 13.3242 24.4818 19.9961 24.4453 26.668C24.171 27.5894 23.5785 28.191 22.668 28.4727C16.8711 28.4727 11.0742 28.4727 5.27735 28.4727C4.36678 28.191 3.77434 27.5894 3.5 26.668C3.46354 18.5377 3.46354 10.4076 3.5 2.27734C3.77434 1.35591 4.36678 0.754352 5.27735 0.472656ZM5.55078 1.67578C9.52476 1.67578 13.4987 1.67578 17.4727 1.67578C17.4635 3.00663 17.4727 4.33736 17.5 5.66797C17.7643 6.58852 18.3568 7.18101 19.2773 7.44531C20.6079 7.47266 21.9387 7.48179 23.2695 7.47266C23.2787 13.78 23.2695 20.0873 23.2422 26.3945C23.1055 26.8229 22.8229 27.1055 22.3945 27.2422C16.7799 27.2787 11.1654 27.2787 5.55078 27.2422C5.1224 27.1055 4.83985 26.8229 4.70313 26.3945C4.66667 18.4466 4.66667 10.4987 4.70313 2.55078C4.84996 2.12147 5.13252 1.82981 5.55078 1.67578ZM18.6758 2.55078C19.9226 3.77023 21.1621 5.00069 22.3945 6.24219C21.4466 6.27866 20.4987 6.27866 19.5508 6.24219C19.1224 6.10547 18.8398 5.82292 18.7031 5.39453C18.6758 4.44679 18.6666 3.49887 18.6758 2.55078Z" fill="white"/>
<path opacity="0.954" fill-rule="evenodd" clip-rule="evenodd" d="M13.0977 9.76934C13.6017 9.73478 14.0757 9.83507 14.5196 10.0701C14.783 10.2971 14.9561 10.5797 15.0391 10.9178C15.2436 11.7486 15.2072 12.569 14.9297 13.3787C14.7786 13.9413 14.6055 14.4973 14.4102 15.0467C15.1205 15.9757 15.9408 16.796 16.8711 17.5076C17.7236 17.4034 18.5803 17.367 19.4414 17.3982C20.726 17.5157 21.2092 18.1993 20.8907 19.449C20.6539 19.9402 20.262 20.2228 19.7149 20.2967C19.4596 20.3332 19.2045 20.3332 18.9492 20.2967C18.0982 19.9307 17.3234 19.4476 16.625 18.8475C15.3539 19.0947 14.1051 19.4319 12.8789 19.8592C12.7925 19.8978 12.7104 19.9434 12.6328 19.9959C12.0848 21.1456 11.3465 22.1573 10.418 23.0311C10.0207 23.3848 9.56493 23.64 9.05081 23.7967C8.20458 23.9163 7.53925 23.6338 7.05472 22.949C6.90553 22.465 6.96022 22.0093 7.21878 21.5818C7.54455 21.1833 7.9365 20.8643 8.39456 20.6248C9.49979 20.0631 10.6118 19.5162 11.7305 18.9842C11.8893 18.6755 12.026 18.3565 12.1407 18.0272C12.4309 17.138 12.7317 16.254 13.043 15.3748C12.3686 14.5637 11.9037 13.6432 11.6485 12.6131C11.5521 11.8425 11.6796 11.1134 12.0313 10.4256C12.3001 10.0591 12.6556 9.84032 13.0977 9.76934ZM13.1524 11.0272C13.0287 11.1466 12.9466 11.2925 12.9063 11.4647C12.7584 12.3521 12.9589 13.1542 13.5078 13.8709C13.6354 13.4152 13.7631 12.9594 13.8907 12.5037C13.9271 12.1209 13.9271 11.7381 13.8907 11.3553C13.8717 11.2269 13.8079 11.1266 13.6992 11.0545C13.5178 11.0273 13.3356 11.0181 13.1524 11.0272ZM13.918 16.4959C13.7398 17.1217 13.5392 17.7415 13.3164 18.3553C13.3346 18.3735 13.3529 18.3918 13.3711 18.41C14.0302 18.218 14.6864 18.0266 15.3399 17.8357C14.8659 17.4347 14.4284 16.9972 14.0274 16.5232C13.9949 16.4979 13.9584 16.4887 13.918 16.4959ZM18.4024 18.6287C18.6997 18.8503 19.0278 19.0144 19.3867 19.1209C19.68 19.1117 19.7894 18.975 19.7149 18.7107C19.2751 18.5816 18.8376 18.5542 18.4024 18.6287ZM10.6367 20.9256C9.93297 21.2045 9.25851 21.5418 8.61331 21.9373C8.42048 22.0481 8.27463 22.203 8.17581 22.4022C8.2305 22.4477 8.28519 22.4933 8.33987 22.5389C8.67363 22.647 8.98354 22.5924 9.26956 22.3748C9.79347 21.9513 10.2492 21.4683 10.6367 20.9256Z" fill="white"/>
</g>
<defs>
<clipPath id="clip0_2_1446">
<rect width="28" height="28" fill="white" transform="translate(0 0.5)"/>
</clipPath>
</defs>
</svg>
