<svg width="30" height="20" viewBox="0 0 30 20" fill="none" xmlns="http://www.w3.org/2000/svg">
<path opacity="0.997" fill-rule="evenodd" clip-rule="evenodd" d="M30 1.78571C30 3.41268 30 5.0397 30 6.66666C20 6.66666 10 6.66666 0 6.66666C0 5.0397 0 3.41268 0 1.78571C0.249401 0.828156 0.854871 0.242829 1.81641 0.0297634C10.6055 -0.00992112 19.3945 -0.00992112 28.1836 0.0297634C29.1451 0.242829 29.7506 0.828156 30 1.78571Z" fill="#F5F5F5"/>
<path opacity="0.998" fill-rule="evenodd" clip-rule="evenodd" d="M0 6.6665C10 6.6665 20 6.6665 30 6.6665C30 8.8887 30 11.111 30 13.3332C20 13.3332 10 13.3332 0 13.3332C0 11.111 0 8.8887 0 6.6665Z" fill="#41479B"/>
<path opacity="0.997" fill-rule="evenodd" clip-rule="evenodd" d="M0 13.3335C10 13.3335 20 13.3335 30 13.3335C30 14.9605 30 16.5875 30 18.2144C29.7521 19.1704 29.1466 19.7557 28.1836 19.9704C19.3945 20.0101 10.6055 20.0101 1.81641 19.9704C0.853336 19.7557 0.247866 19.1704 0 18.2144C0 16.5875 0 14.9605 0 13.3335Z" fill="#FF4B54"/>
</svg>
