<svg width="162" height="168" viewBox="0 0 162 168" fill="none" xmlns="http://www.w3.org/2000/svg">
<g clip-path="url(#clip0_35_629)">
<path opacity="0.929" fill-rule="evenodd" clip-rule="evenodd" d="M41.0491 0.757568C43.0051 0.757568 44.9611 0.757568 46.9171 0.757568C53.1706 2.81552 58.4407 6.40146 62.7279 11.5154C67.1425 16.9742 70.4569 23.0595 72.6707 29.7712C76.3587 29.6645 80.0532 29.7732 83.7546 30.0972C86.755 19.5839 92.623 11.0537 101.358 4.50652C103.942 2.88749 106.659 1.63784 109.508 0.757568C111.464 0.757568 113.42 0.757568 115.376 0.757568C120.076 2.4747 122.847 5.84333 123.689 10.8634C123.906 13.6887 123.906 16.514 123.689 19.3393C123.567 20.698 123.241 22.002 122.711 23.2513C120.937 24.6941 119.416 24.4767 118.147 22.5993C118.295 20.029 118.567 17.4753 118.962 14.9384C118.901 12.5809 118.304 10.3533 117.169 8.25547C115.307 6.09183 112.971 5.38553 110.16 6.1365C105.174 7.96706 100.99 10.9554 97.6094 15.1014C93.7548 19.8211 90.8753 25.0913 88.9705 30.9122C89.1025 31.2204 89.32 31.4377 89.6225 31.5642C91.8314 32.3484 94.0045 33.1091 96.1424 33.8461C98.7637 29.3097 101.426 24.8001 104.129 20.3173C105.626 19.3825 107.038 19.4912 108.367 20.6433C108.742 21.378 108.851 22.1387 108.693 22.9253C106.096 27.5315 103.434 32.0954 100.706 36.6171C102.793 38.1264 104.804 39.7564 106.737 41.507C109.906 38.1206 112.568 34.3716 114.724 30.2602C117.031 29.1567 118.552 29.8087 119.288 32.2161C117.2 37.1833 114.266 41.5843 110.486 45.419C117.551 53.9552 120.431 63.735 119.125 74.7586C118.195 79.9337 115.859 84.3347 112.116 87.9614C119.532 91.0492 126.921 94.2006 134.284 97.4153C140.209 102.263 141.568 108.186 138.359 115.182C134.752 120.378 129.808 122.389 123.526 121.213C121.533 120.488 119.577 119.673 117.658 118.768C117.629 120.991 117.629 123.273 117.658 125.614C126.552 126.087 132.04 130.651 134.121 139.306C134.575 142.895 134.14 146.372 132.817 149.738C131.8 153.589 130.388 157.284 128.579 160.821C125.853 164.365 122.321 166.647 117.984 167.667C115.811 167.667 113.638 167.667 111.464 167.667C106.028 166.193 102.007 162.934 99.4024 157.887C87.0034 164.005 74.2896 164.712 61.2609 160.006C59.8483 159.3 58.4355 158.594 57.0229 157.887C54.3504 162.845 50.3299 166.105 44.9611 167.667C42.6791 167.667 40.3972 167.667 38.1152 167.667C33.4437 166.532 29.8036 163.924 27.1943 159.843C25.5234 155.917 24.1108 151.897 22.9564 147.782C20.9205 140.876 22.3874 134.845 27.3573 129.689C30.6222 126.863 34.4252 125.504 38.7672 125.614C38.8213 123.329 38.7672 121.047 38.6042 118.768C33.0877 122.414 27.4913 122.577 21.8154 119.257C16.5676 114.949 15.1006 109.57 17.4145 103.12C19.6348 98.5047 23.2751 95.9509 28.3353 95.4593C29.9767 96.4415 30.3571 97.7999 29.4763 99.5342C27.7978 100.457 26.1136 101.381 24.4234 102.305C20.3468 106.791 20.5641 111.029 25.0754 115.019C27.2225 116.362 29.5043 116.688 31.9213 115.997C34.5292 114.91 37.1372 113.824 39.7452 112.737C41.5685 105.286 44.9373 98.658 49.851 92.8513C49.3744 92.1338 48.7224 91.9167 47.8951 92.1993C44.5979 93.6236 41.2835 94.982 37.9522 96.2743C36.3767 96.0027 35.4528 95.0788 35.1812 93.5033C35.3305 92.5804 35.7654 91.8199 36.4852 91.2213C39.0932 90.1348 41.7011 89.0479 44.3091 87.9614C37.8528 81.1047 35.5163 73.0089 37.3002 63.6747C38.6964 56.863 41.576 50.7777 45.9391 45.419C37.9378 36.9108 33.3739 26.805 32.2473 15.1014C32.0699 10.0824 33.8085 5.89884 37.4632 2.55054C38.6097 1.79221 39.8048 1.19455 41.0491 0.757568ZM42.0271 5.9735C44.1494 5.83325 46.2142 6.10491 48.2211 6.78849C53.7548 9.71348 58.2643 13.7884 61.7499 19.0133C64.13 22.7412 66.0315 26.7075 67.4548 30.9122C67.3228 31.2204 67.1053 31.4377 66.8028 31.5642C64.5938 32.3484 62.4208 33.1091 60.2829 33.8461C57.5119 29.0637 54.578 24.3911 51.481 19.8283C48.8342 19.2172 47.5847 20.2496 47.7321 22.9253C50.312 27.5427 52.9744 32.1066 55.7189 36.6171C53.6189 38.13 51.6088 39.76 49.688 41.507C42.579 34.0786 38.5041 25.2224 37.4632 14.9384C37.3246 11.0307 38.8461 8.04236 42.0271 5.9735ZM76.2567 34.9871C91.8161 35.4018 103.389 42.3566 110.975 55.8508C114.629 62.7691 115.281 69.941 112.931 77.3665C111.349 81.3398 108.796 84.5453 105.27 86.9834C103.871 85.6002 102.241 84.4048 100.38 83.3975C97.5768 82.6017 94.8603 82.8191 92.2305 84.0494C90.738 85.4183 89.1625 86.6682 87.5035 87.7984C81.2046 83.3531 75.0107 83.4617 68.9218 88.1244C67.2237 86.5342 65.4307 85.0672 63.5428 83.7234C58.6304 81.7939 54.6096 82.9349 51.481 87.1464C44.2602 82.0638 41.1632 75.1093 42.1901 66.2827C44.3701 54.5426 50.6184 45.6863 60.9349 39.714C65.7691 37.1054 70.8761 35.5299 76.2567 34.9871ZM58.0009 88.1244C59.4001 87.9728 60.7041 88.2444 61.9129 88.9394C63.3296 89.9213 64.5247 91.1167 65.4988 92.5253C63.6931 96.6104 63.8017 100.631 65.8248 104.587C64.5208 105.674 63.2168 106.761 61.9129 107.847C59.3991 109.295 57.389 108.806 55.8819 106.38C55.6645 101.056 55.6645 95.7308 55.8819 90.4064C56.4342 89.4747 57.1406 88.7141 58.0009 88.1244ZM95.8164 88.1244C97.9771 87.7107 99.5526 88.4712 100.543 90.4064C100.761 95.7308 100.761 101.056 100.543 106.38C99.4601 108.469 97.776 109.176 95.4904 108.499C93.8008 107.273 92.1708 105.969 90.6005 104.587C92.3325 100.514 92.3325 96.4389 90.6005 92.3623C92.3534 90.9322 94.0919 89.5196 95.8164 88.1244ZM76.5827 89.7544C83.6897 89.8518 87.0038 93.4378 86.5255 100.512C83.897 106.797 79.4961 108.482 73.3227 105.565C68.1068 100.784 68.1068 96.0027 73.3227 91.2213C74.4288 90.6932 75.5154 90.2042 76.5827 89.7544ZM107.226 92.0363C115.624 95.1075 123.882 98.5305 132.002 102.305C135.533 105.94 135.805 109.798 132.817 113.878C130.428 116.116 127.657 116.822 124.504 115.997C121.896 114.91 119.288 113.824 116.68 112.737C114.739 105.268 111.262 98.639 106.248 92.8513C106.597 92.5736 106.923 92.302 107.226 92.0363ZM50.177 101.164C49.5231 105.582 50.8271 109.331 54.089 112.411C57.405 114.226 60.7738 114.335 64.1948 112.737C65.6872 111.368 67.2628 110.118 68.9218 108.988C75.1033 113.333 81.2972 113.333 87.5035 108.988C89.4191 110.576 91.4292 112.043 93.5344 113.389C99.4239 114.981 103.499 112.971 105.759 107.358C105.868 105.294 105.977 103.229 106.085 101.164C110.758 108.881 112.823 117.248 112.279 126.266C107.526 128.085 104.158 131.345 102.173 136.046C100.138 141.443 98.6715 146.985 97.7724 152.672C88.0809 157.985 77.8664 159.235 67.1288 156.42C63.9122 155.545 60.9238 154.187 58.1639 152.346C57.4451 145.777 55.7062 139.474 52.948 133.438C50.772 130.121 47.838 127.731 44.1461 126.266C43.5456 117.258 45.556 108.891 50.177 101.164ZM117.658 130.504C125.538 131.699 129.287 136.263 128.905 144.196C127.841 148.039 126.646 151.842 125.319 155.605C121.36 162.56 115.763 164.244 108.53 160.658C105.277 158.374 103.539 155.222 103.314 151.205C104.46 145.593 106.253 140.214 108.693 135.068C111.095 132.333 114.084 130.812 117.658 130.504ZM36.1592 130.83C41.9147 130.203 46.2067 132.376 49.036 137.35C50.6898 141.874 51.9394 146.492 52.785 151.205C52.5855 156.401 50.0864 159.987 45.2871 161.962C38.54 163.506 33.7045 161.169 30.7803 154.953C29.8682 151.891 28.8902 148.848 27.8463 145.826C26.3075 138.358 29.0783 133.359 36.1592 130.83Z" fill="#0091D6"/>
<path opacity="0.905" fill-rule="evenodd" clip-rule="evenodd" d="M56.6969 56.8288C57.4653 56.7757 58.2259 56.8298 58.9789 56.9918C59.5765 57.1548 59.9569 57.5352 60.1199 58.1328C60.3373 60.3062 60.3373 62.4793 60.1199 64.6527C58.5799 66.298 57.0585 66.298 55.5559 64.6527C54.904 62.3707 54.904 60.0888 55.5559 57.8068C55.9292 57.4365 56.3097 57.1105 56.6969 56.8288Z" fill="#0091D6"/>
<path opacity="0.9" fill-rule="evenodd" clip-rule="evenodd" d="M97.1204 56.829C97.9964 56.7755 98.8658 56.8299 99.7284 56.992C100.326 57.1549 100.706 57.5354 100.869 58.1329C101.087 60.1975 101.087 62.2623 100.869 64.3269C99.9399 65.741 98.6901 66.1215 97.1204 65.4678C96.4727 65.0378 96.0922 64.4403 95.9794 63.6749C95.762 62.0449 95.762 60.4149 95.9794 58.7849C96.1633 58.0068 96.5434 57.3548 97.1204 56.829Z" fill="#0091D6"/>
<path opacity="0.926" fill-rule="evenodd" clip-rule="evenodd" d="M73.9747 58.4589C77.0521 58.3139 80.095 58.4769 83.1026 58.9479C84.478 60.8045 84.152 62.3259 82.1246 63.5119C81.7031 63.6716 81.2682 63.7261 80.8206 63.6749C80.2987 65.7189 81.0051 67.0229 82.9396 67.5868C84.5481 67.3159 85.3086 66.3379 85.2216 64.6529C86.0154 63.1129 87.2652 62.6239 88.9705 63.1859C90.1777 64.293 90.5578 65.6514 90.1115 67.2608C88.3456 71.92 85.0312 73.6044 80.1686 72.3138C79.4883 72.0556 78.8904 71.6751 78.3757 71.1728C74.2055 73.7677 70.511 73.2243 67.2918 69.5428C66.6343 68.38 66.2538 67.1301 66.1508 65.7939C66.4436 63.4711 67.7475 62.6017 70.0628 63.1859C71.0936 64.0853 71.6914 65.2263 71.8557 66.6088C72.8243 67.7798 73.9108 67.8884 75.1157 66.9348C75.5447 65.8956 75.7077 64.8087 75.6047 63.6749C73.1014 63.506 72.1778 62.202 72.8337 59.7629C73.0587 59.1598 73.4388 58.725 73.9747 58.4589Z" fill="#0091D6"/>
</g>
<defs>
<clipPath id="clip0_35_629">
<rect width="166.91" height="166.91" fill="white" transform="translate(-5.07922 0.920654)"/>
</clipPath>
</defs>
</svg>
