<svg width="209" height="230" viewBox="0 0 209 230" fill="none" xmlns="http://www.w3.org/2000/svg">
<path opacity="0.867" fill-rule="evenodd" clip-rule="evenodd" d="M78.8125 17.5828C84.8755 17.7466 89.866 20.1302 93.7847 24.7337C94.9883 26.8464 96.1802 28.9321 97.3601 30.9907C109.067 26.0995 120.687 26.2485 132.221 31.4376C134.804 22.9745 140.54 18.3563 149.428 17.5828C160.329 18.6518 166.288 24.6109 167.305 35.46C167.138 43.5127 163.413 49.1737 156.132 52.4434C164.222 65.214 164.892 78.3239 158.143 91.7734C156.45 94.2119 154.588 96.5212 152.556 98.7008C167.066 105.023 179.059 114.483 188.534 127.081C191.332 131.337 193.269 135.955 194.344 140.936C195.108 148.568 192.501 154.751 186.523 159.484C181.229 162.465 175.717 162.986 169.986 161.048C169.251 163.004 168.656 165.016 168.199 167.081C175.049 180.652 172.665 192.421 161.048 202.389C151.188 209.992 140.164 212.525 127.975 209.987C122.819 208.103 119.691 204.453 118.589 199.037C115.908 198.441 113.226 198.441 110.545 199.037C108.762 205.971 104.293 209.918 97.1367 210.881C83.5048 211.846 72.108 207.302 62.9464 197.249C55.736 187.609 55.0656 177.553 60.9352 167.081C60.4784 165.016 59.8827 163.004 59.1475 161.048C48.195 164.173 40.3738 160.598 35.6836 150.321C33.7872 143.409 34.6811 136.854 38.3652 130.656C45.5514 119.275 55.0111 110.262 66.7453 103.617C70.0365 101.971 73.3143 100.333 76.5778 98.7008C65.4425 86.9282 63.1337 73.5945 69.6504 58.7005C70.6542 56.5436 71.7715 54.4582 73.0023 52.4434C63.6154 47.8204 60.1146 40.3714 62.4995 30.0968C65.3768 22.5201 70.8146 18.3488 78.8125 17.5828ZM77.0247 21.6051C85.2165 21.1537 90.5797 24.8036 93.1143 32.555C90.1766 34.7768 87.1973 37.0115 84.1756 39.2589C80.9282 42.3556 77.8739 45.5584 75.0135 48.868C67.4121 45.4346 64.4324 39.6244 66.0749 31.4376C67.9905 26.1672 71.6406 22.8898 77.0247 21.6051ZM147.193 21.6051C158.062 21.5246 163.5 26.8878 163.506 37.6947C162.323 43.0496 159.194 46.7741 154.12 48.868C148.891 42.4422 142.858 37.0045 136.02 32.555C137.645 26.683 141.369 23.033 147.193 21.6051ZM148.534 96.6896C150.044 91.3497 149.374 86.2846 146.523 81.494C143.447 76.4812 139.35 72.5334 134.232 69.6503C139.227 65.6315 139.376 61.4598 134.679 57.1362C127.437 55.4347 123.936 58.3398 124.176 65.8514C117.77 64.0636 111.364 64.0636 104.958 65.8514C105.104 57.9447 101.454 55.1885 94.0081 57.5831C89.6693 61.9564 89.967 65.9787 94.902 69.6503C88.8206 73.0501 84.2766 77.8917 81.2706 84.1756C79.4891 88.4214 79.2657 92.7415 80.6002 97.1366C71.4703 88.9336 68.2671 78.8034 70.9912 66.7452C76.4169 50.2861 87.2175 39.0382 103.394 33.0019C115.154 29.7228 126.178 31.3615 136.467 37.9181C147.067 44.9495 154.293 54.5583 158.143 66.7452C160.928 78.7096 157.725 88.6909 148.534 96.6896ZM97.5836 60.0413C101.475 61.0817 102.071 63.0929 99.3713 66.0748C97.5469 66.6527 96.1315 66.1311 95.1255 64.5106C94.679 62.2719 95.4982 60.7823 97.5836 60.0413ZM129.763 60.4882C133.795 60.2924 134.987 62.0055 133.338 65.6279C129.942 66.991 128.228 65.8737 128.198 62.2759C128.66 61.5935 129.181 60.9977 129.763 60.4882ZM112.779 68.086C124.091 68.1535 133.551 72.3247 141.159 80.6001C147.389 88.501 146.718 95.7265 139.148 102.276C123.635 111.532 107.844 111.979 91.7735 103.617C82.3262 96.9989 81.2089 89.1776 88.4215 80.1532C95.0544 73.0751 103.174 69.0527 112.779 68.086ZM79.7063 101.606C82.2972 103.574 84.9788 105.436 87.7511 107.193C72.879 117.347 65.6535 131.425 66.0749 149.428C64.2523 154.08 60.9003 156.985 56.019 158.143C47.218 159.293 41.4825 155.643 38.8121 147.193C38.1081 140.961 39.5978 135.3 43.2814 130.21C49.9854 120.641 58.4029 112.969 68.533 107.193C72.2984 105.31 76.0232 103.448 79.7063 101.606ZM148.981 101.606C164.673 107.691 177.262 117.672 186.746 131.55C189.843 136.339 191.035 141.553 190.322 147.193C187.798 155.867 182.063 159.518 173.115 158.143C165.514 156.223 162.237 151.455 163.283 143.841C161.552 128.239 154.253 115.948 141.383 106.969C144.181 105.501 146.713 103.713 148.981 101.606ZM91.3265 109.204C95.0191 110.21 98.7434 111.178 102.5 112.109C114.171 114.276 125.568 113.308 136.69 109.204C148.032 115.786 155.332 125.47 158.59 138.254C159.29 141.225 159.364 144.204 158.813 147.193C158.938 150.325 159.907 153.155 161.718 155.685C163.163 157.13 164.579 158.545 165.964 159.93C165.712 161.417 165.266 162.832 164.623 164.176C154.204 158.44 144.073 158.962 134.232 165.741C124.725 173.21 119.51 182.968 118.589 195.015C115.908 195.015 113.226 195.015 110.545 195.015C109.613 182.946 104.399 173.188 94.902 165.741C87.2751 160.342 78.9322 158.852 69.8738 161.271C68.0146 162.126 66.2269 163.094 64.5107 164.176C63.8684 162.832 63.4215 161.417 63.1699 159.93C67.3384 156.738 69.7219 152.492 70.3208 147.193C69.624 139.848 71.1883 132.995 75.0135 126.634C79.3072 119.734 84.7446 113.924 91.3265 109.204ZM75.237 163.729C86.6811 163.827 95.3963 168.743 101.383 178.478C104.628 183.522 106.49 189.034 106.969 195.015C106.343 203.534 101.725 207.705 93.1143 207.529C82.6596 206.956 73.7952 202.933 66.5218 195.462C61.1207 188.912 59.6311 181.612 62.0525 173.562C64.7341 167.974 69.1288 164.696 75.237 163.729ZM150.322 163.729C164.29 164.95 170.026 172.399 167.528 186.076C164.188 195.375 157.856 201.707 148.534 205.071C143.224 207.31 137.712 208.055 131.997 207.305C125.549 205.886 122.272 201.864 122.165 195.238C123.663 181.8 130.367 171.968 142.277 165.741C144.949 164.775 147.631 164.104 150.322 163.729Z" fill="#E30613"/>
<path opacity="0.841" fill-rule="evenodd" clip-rule="evenodd" d="M77.9186 26.5215C80.3034 26.4102 82.5381 26.9316 84.6226 28.0858C86.4939 29.1584 86.792 30.4992 85.5164 32.1082C85.1441 32.1827 84.7714 32.2571 84.3991 32.3316C82.863 31.4906 81.2241 30.8947 79.4829 30.5439C76.4361 30.9092 74.7226 32.6225 74.3431 35.6836C74.8477 37.4369 75.5923 39.0757 76.5778 40.5999C75.9396 42.5505 74.7481 42.9974 73.0023 41.9407C69.2302 36.9509 69.6772 32.3326 74.3431 28.0858C75.5311 27.4252 76.7231 26.9038 77.9186 26.5215Z" fill="#E30613"/>
<path opacity="0.846" fill-rule="evenodd" clip-rule="evenodd" d="M148.087 26.5215C156.174 26.9336 159.526 31.1049 158.143 39.0356C157.404 41.5097 155.84 42.5526 153.45 42.1641C153.109 41.6598 152.811 41.1384 152.556 40.5998C155.291 37.7115 155.44 34.732 153.003 31.6612C151.989 30.9676 150.872 30.5952 149.651 30.5439C147.929 30.9297 146.29 31.5256 144.735 32.3316C143.064 32.1506 142.468 31.2568 142.947 29.65C144.388 28.0765 146.102 27.0337 148.087 26.5215Z" fill="#E30613"/>
<path opacity="0.859" fill-rule="evenodd" clip-rule="evenodd" d="M110.992 73.8961C116.132 73.4617 121.048 74.2809 125.74 76.3542C130.167 80.5375 129.72 84.2618 124.399 87.5275C117.844 90.8049 111.29 90.8049 104.734 87.5275C99.4137 84.2618 98.9668 80.5375 103.394 76.3542C105.869 75.1806 108.402 74.3609 110.992 73.8961ZM110.098 77.9185C108.455 78.445 106.816 79.1154 105.181 79.9297C103.946 81.2553 104.094 82.4472 105.628 83.5051C106.82 84.1009 108.012 84.6971 109.204 85.2929C114.196 86.7937 118.963 86.1979 123.506 83.5051C124.662 82.8236 125.034 81.8551 124.623 80.6001C123.519 79.6383 122.253 78.9679 120.824 78.5889C117.28 77.9797 113.705 77.7563 110.098 77.9185Z" fill="#E30613"/>
<path opacity="0.862" fill-rule="evenodd" clip-rule="evenodd" d="M94.0081 94.902C94.7675 94.8305 95.5125 94.9047 96.2428 95.1255C108.858 102.011 121.446 101.936 134.009 94.902C135.988 95.5063 136.361 96.6236 135.126 98.254C121.294 106.335 107.514 106.26 93.7847 98.0306C92.9784 96.9472 93.0526 95.9045 94.0081 94.902Z" fill="#E30613"/>
<path opacity="0.873" fill-rule="evenodd" clip-rule="evenodd" d="M90.4327 118.142C97.2886 117.566 103.62 119.056 109.427 122.612C112.725 119.043 116.003 119.043 119.26 122.612C126.388 118.207 133.911 117.238 141.83 119.707C142.718 120.296 143.239 121.115 143.394 122.165C144.736 128.264 143.991 134.074 141.159 139.595C140.463 140.609 139.495 141.13 138.254 141.159C130.943 142.321 124.313 140.756 118.366 136.467C117.335 137.534 116.069 137.981 114.567 137.807C113.065 137.981 111.799 137.534 110.768 136.467C104.183 141.078 96.9579 142.493 89.0919 140.713C87.3435 139.08 86.2261 137.069 85.7399 134.679C84.7656 129.873 84.9144 125.106 86.1868 120.377C87.486 119.319 88.9015 118.574 90.4327 118.142ZM135.126 121.718C130.365 121.942 125.895 123.283 121.718 125.74C121.282 128.279 121.058 130.811 121.047 133.338C126.039 137.159 131.625 138.426 137.807 137.137C138.909 135.774 139.579 134.21 139.819 132.444C140.117 129.763 140.117 127.081 139.819 124.4C139.721 123.757 139.497 123.161 139.148 122.612C137.794 122.313 136.453 122.015 135.126 121.718ZM90.8796 122.165C90.5627 122.569 90.1158 122.718 89.5388 122.612C89.0843 125.877 89.0101 129.154 89.3153 132.444C89.6148 134.013 90.1364 135.503 90.8796 136.914C95.0875 138.121 99.2591 137.897 103.394 136.243C105.376 135.556 107.015 134.438 108.31 132.891C107.984 130.67 107.761 128.435 107.64 126.187C102.556 122.89 96.9695 121.549 90.8796 122.165ZM113.673 123.953C112.332 125.295 111.587 126.934 111.438 128.869C111.345 131.368 112.388 133.156 114.567 134.232C116.746 133.156 117.789 131.368 117.695 128.869C117.7 126.015 116.359 124.376 113.673 123.953Z" fill="#E30613"/>
<path opacity="0.843" fill-rule="evenodd" clip-rule="evenodd" d="M75.237 169.54C76.8044 169.313 78.2198 169.611 79.4829 170.433C79.781 171.029 79.781 171.625 79.4829 172.221C70.07 174.22 67.8354 179.435 72.7789 187.864C74.2135 189.593 75.629 191.306 77.0247 193.003C76.3865 194.954 75.195 195.401 73.4493 194.344C66.4798 188.359 64.9156 181.283 68.7565 173.115C70.5974 171.265 72.7574 170.073 75.237 169.54Z" fill="#E30613"/>
<path opacity="0.849" fill-rule="evenodd" clip-rule="evenodd" d="M148.981 169.54C159.469 169.071 163.789 173.913 161.942 184.065C160.92 184.938 159.952 184.863 159.037 183.841C159.653 175.817 156.003 172.465 148.087 173.785C145.228 174.544 142.696 175.885 140.489 177.808C137.723 177.799 137.127 176.607 138.701 174.232C141.832 171.92 145.259 170.356 148.981 169.54Z" fill="#E30613"/>
</svg>
