<svg width="229" height="229" viewBox="0 0 229 229" fill="none" xmlns="http://www.w3.org/2000/svg">
<path opacity="0.867" fill-rule="evenodd" clip-rule="evenodd" d="M78.4365 211.622C84.4996 211.459 89.49 209.075 93.4087 204.471C94.6123 202.359 95.8042 200.273 96.9841 198.214C108.691 203.106 120.311 202.957 131.845 197.767C134.429 206.231 140.164 210.849 149.052 211.622C159.953 210.553 165.912 204.594 166.929 193.745C166.762 185.692 163.037 180.031 155.756 176.762C163.846 163.991 164.516 150.881 157.767 137.432C156.074 134.993 154.212 132.684 152.18 130.504C166.69 124.182 178.683 114.722 188.158 102.124C190.956 97.868 192.893 93.2498 193.968 88.2692C194.732 80.637 192.125 74.4546 186.147 69.7216C180.854 66.7405 175.342 66.2194 169.611 68.1573C168.875 66.2006 168.28 64.1894 167.823 62.1237C174.673 48.5526 172.289 36.7836 160.672 26.8161C150.812 19.2129 139.788 16.6802 127.599 19.2183C122.443 21.1021 119.315 24.7522 118.213 30.1681C115.532 30.7639 112.85 30.7639 110.169 30.1681C108.386 23.2344 103.917 19.2867 96.7607 18.3244C83.1288 17.3595 71.7321 21.903 62.5704 31.9558C55.3601 41.5957 54.6897 51.6517 60.5592 62.1237C60.1025 64.1894 59.5067 66.2006 58.7715 68.1573C47.819 65.0319 39.9978 68.6073 35.3076 78.8837C33.4112 85.7959 34.3051 92.351 37.9892 98.5486C45.1754 109.93 54.6351 118.943 66.3693 125.588C69.6605 127.234 72.9383 128.872 76.2018 130.504C65.0665 142.277 62.7577 155.611 69.2744 170.505C70.2782 172.662 71.3955 174.747 72.6264 176.762C63.2395 181.385 59.7387 188.834 62.1235 199.108C65.0008 206.685 70.4386 210.856 78.4365 211.622ZM76.6488 207.6C84.8406 208.051 90.2037 204.401 92.7383 196.65C89.8006 194.428 86.8214 192.194 83.7997 189.946C80.5523 186.849 77.4979 183.647 74.6376 180.337C67.0362 183.77 64.0565 189.581 65.6989 197.767C67.6145 203.038 71.2646 206.315 76.6488 207.6ZM146.817 207.6C157.686 207.68 163.124 202.317 163.13 191.51C161.947 186.155 158.818 182.431 153.744 180.337C148.515 186.763 142.482 192.201 135.644 196.65C137.269 202.522 140.993 206.172 146.817 207.6ZM148.158 132.515C149.668 137.855 148.998 142.92 146.147 147.711C143.071 152.724 138.974 156.672 133.856 159.555C138.851 163.574 139 167.745 134.303 172.069C127.061 173.77 123.56 170.865 123.8 163.354C117.394 165.141 110.988 165.141 104.582 163.354C104.728 171.26 101.078 174.017 93.6322 171.622C89.2933 167.249 89.591 163.226 94.526 159.555C88.4446 156.155 83.9007 151.313 80.8946 145.03C79.1131 140.784 78.8897 136.464 80.2242 132.068C71.0943 140.271 67.8911 150.402 70.6152 162.46C76.0409 178.919 86.8415 190.167 103.018 196.203C114.778 199.482 125.802 197.844 136.091 191.287C146.691 184.256 153.917 174.647 157.767 162.46C160.552 150.495 157.349 140.514 148.158 132.515ZM97.2076 169.164C101.099 168.123 101.695 166.112 98.9953 163.13C97.171 162.552 95.7555 163.074 94.7495 164.695C94.303 166.933 95.1222 168.423 97.2076 169.164ZM129.387 168.717C133.419 168.913 134.611 167.2 132.962 163.577C129.566 162.214 127.852 163.331 127.822 166.929C128.284 167.612 128.805 168.207 129.387 168.717ZM112.403 161.119C123.715 161.052 133.175 156.88 140.783 148.605C147.013 140.704 146.342 133.479 138.772 126.929C123.259 117.673 107.468 117.226 91.3975 125.588C81.9503 132.206 80.8329 140.027 88.0455 149.052C94.6784 156.13 102.798 160.152 112.403 161.119ZM79.3303 127.599C81.9212 125.631 84.6028 123.769 87.3751 122.013C72.503 111.858 65.2775 97.7799 65.6989 79.7775C63.8763 75.1254 60.5244 72.2203 55.643 71.0623C46.842 69.9124 41.1065 73.5625 38.4361 82.0122C37.7321 88.2442 39.2219 93.905 42.9054 98.9956C49.6094 108.564 58.0269 116.236 68.1571 122.013C71.9225 123.895 75.6472 125.757 79.3303 127.599ZM148.605 127.599C164.297 121.514 176.886 111.533 186.37 97.6548C189.467 92.8659 190.659 87.652 189.946 82.0122C187.423 73.3377 181.687 69.6876 172.739 71.0623C165.139 72.9824 161.861 77.7498 162.907 85.3642C161.176 100.966 153.877 113.257 141.007 122.236C143.805 123.704 146.337 125.492 148.605 127.599ZM90.9506 120.001C94.6431 118.995 98.3674 118.027 102.124 117.096C113.795 114.929 125.192 115.897 136.314 120.001C147.656 113.419 154.956 103.735 158.214 90.9508C158.914 87.9805 158.988 85.0008 158.437 82.0122C158.562 78.8801 159.531 76.0497 161.342 73.5205C162.787 72.0755 164.203 70.6601 165.588 69.2746C165.337 67.7881 164.89 66.3727 164.247 65.0288C153.828 70.7651 143.697 70.2436 133.856 63.4645C124.349 55.9954 119.135 46.2375 118.213 34.1905C115.532 34.1905 112.85 34.1905 110.169 34.1905C109.237 46.2594 104.023 56.0173 94.526 63.4645C86.8991 68.863 78.5563 70.3526 69.4979 67.9338C67.6386 67.0793 65.8509 66.1108 64.1347 65.0288C63.4924 66.3727 63.0455 67.7881 62.7939 69.2746C66.9624 72.4671 69.3459 76.7129 69.9448 82.0122C69.248 89.3566 70.8123 96.2098 74.6376 102.571C78.9312 109.471 84.3686 115.281 90.9506 120.001ZM74.861 65.4757C86.3052 65.3778 95.0203 60.4616 101.007 50.727C104.252 45.6829 106.115 40.1709 106.593 34.1905C105.967 25.6715 101.349 21.5003 92.7383 21.6764C82.2837 22.2494 73.4192 26.2718 66.1459 33.7436C60.7447 40.2934 59.2551 47.5931 61.6766 55.6432C64.3581 61.2312 68.7528 64.509 74.861 65.4757ZM149.946 65.4757C163.914 64.2547 169.65 56.8061 167.152 43.1291C163.812 33.8298 157.48 27.4981 148.158 24.1345C142.848 21.895 137.336 21.1499 131.621 21.8999C125.173 23.3189 121.896 27.3413 121.789 33.967C123.287 47.4049 129.991 57.2374 141.901 63.4645C144.573 64.4303 147.255 65.1007 149.946 65.4757Z" fill="#E6097C"/>
<path opacity="0.841" fill-rule="evenodd" clip-rule="evenodd" d="M77.5426 202.684C79.9274 202.795 82.1621 202.273 84.2466 201.119C86.1179 200.047 86.416 198.706 85.1405 197.097C84.7682 197.022 84.3954 196.948 84.0231 196.873C82.487 197.714 80.8481 198.31 79.1069 198.661C76.0601 198.296 74.3466 196.583 73.9672 193.521C74.4718 191.768 75.2163 190.129 76.2018 188.605C75.5636 186.655 74.3721 186.208 72.6264 187.264C68.8543 192.254 69.3012 196.872 73.9672 201.119C75.1551 201.78 76.3471 202.301 77.5426 202.684Z" fill="#E6097C"/>
<path opacity="0.846" fill-rule="evenodd" clip-rule="evenodd" d="M147.711 202.684C155.799 202.272 159.151 198.1 157.767 190.17C157.029 187.695 155.464 186.653 153.074 187.041C152.734 187.545 152.435 188.067 152.18 188.605C154.915 191.494 155.064 194.473 152.627 197.544C151.613 198.237 150.496 198.61 149.275 198.661C147.553 198.275 145.914 197.679 144.359 196.873C142.688 197.054 142.092 197.948 142.571 199.555C144.013 201.129 145.726 202.171 147.711 202.684Z" fill="#E6097C"/>
<path opacity="0.859" fill-rule="evenodd" clip-rule="evenodd" d="M110.616 155.309C115.756 155.743 120.672 154.924 125.364 152.851C129.791 148.668 129.344 144.943 124.023 141.678C117.468 138.4 110.914 138.4 104.358 141.678C99.0378 144.943 98.5908 148.668 103.018 152.851C105.493 154.024 108.026 154.844 110.616 155.309ZM109.722 151.287C108.079 150.76 106.44 150.09 104.805 149.275C103.57 147.95 103.718 146.758 105.252 145.7C106.444 145.104 107.636 144.508 108.828 143.912C113.82 142.411 118.587 143.007 123.13 145.7C124.286 146.382 124.658 147.35 124.247 148.605C123.143 149.567 121.877 150.237 120.448 150.616C116.904 151.225 113.329 151.449 109.722 151.287Z" fill="#E6097C"/>
<path opacity="0.862" fill-rule="evenodd" clip-rule="evenodd" d="M93.6322 134.303C94.3915 134.375 95.1365 134.3 95.8668 134.08C108.482 127.194 121.07 127.269 133.633 134.303C135.612 133.699 135.985 132.581 134.75 130.951C120.918 122.871 107.138 122.945 93.4087 131.175C92.6024 132.258 92.6766 133.301 93.6322 134.303Z" fill="#E6097C"/>
<path opacity="0.873" fill-rule="evenodd" clip-rule="evenodd" d="M90.0567 111.063C96.9126 111.639 103.244 110.149 109.051 106.593C112.349 110.162 115.627 110.162 118.884 106.593C126.012 110.998 133.535 111.967 141.454 109.498C142.342 108.909 142.863 108.09 143.018 107.04C144.36 100.941 143.615 95.1313 140.783 89.6099C140.087 88.5963 139.119 88.0751 137.878 88.0456C130.567 86.8845 123.937 88.4488 117.99 92.7384C116.959 91.6711 115.693 91.2242 114.191 91.3976C112.689 91.2242 111.423 91.6711 110.392 92.7384C103.807 88.127 96.5819 86.712 88.7159 88.4926C86.9675 90.1248 85.8502 92.136 85.3639 94.5261C84.3896 99.332 84.5384 104.099 85.8108 108.828C87.1101 109.886 88.5255 110.631 90.0567 111.063ZM134.75 107.487C129.989 107.263 125.519 105.922 121.342 103.465C120.906 100.926 120.682 98.3939 120.672 95.8669C125.663 92.0457 131.249 90.7791 137.431 92.068C138.533 93.4307 139.203 94.995 139.443 96.7608C139.741 99.4424 139.741 102.124 139.443 104.806C139.345 105.448 139.121 106.044 138.772 106.593C137.418 106.892 136.077 107.19 134.75 107.487ZM90.5036 107.04C90.1867 106.636 89.7398 106.487 89.1628 106.593C88.7083 103.328 88.6341 100.051 88.9394 96.7608C89.2388 95.1916 89.7604 93.702 90.5036 92.2915C94.7115 91.0843 98.8831 91.3078 103.018 92.9619C105 93.6493 106.639 94.7666 107.934 96.3139C107.608 98.5351 107.385 100.77 107.264 103.018C102.18 106.315 96.5935 107.656 90.5036 107.04ZM113.297 105.252C111.956 103.91 111.211 102.271 111.062 100.336C110.969 97.837 112.012 96.0493 114.191 94.9731C116.37 96.0493 117.413 97.837 117.32 100.336C117.324 103.19 115.983 104.829 113.297 105.252Z" fill="#E6097C"/>
<path opacity="0.843" fill-rule="evenodd" clip-rule="evenodd" d="M74.861 59.6656C76.4284 59.8917 77.8438 59.594 79.1069 58.7717C79.405 58.1759 79.405 57.5797 79.1069 56.984C69.6941 54.9848 67.4594 49.7705 72.4029 41.3414C73.8376 39.6122 75.253 37.8986 76.6488 36.2016C76.0105 34.2512 74.819 33.8043 73.0733 34.8608C66.1039 40.8457 64.5396 47.922 68.3805 56.0901C70.2214 57.9399 72.3815 59.1319 74.861 59.6656Z" fill="#E6097C"/>
<path opacity="0.849" fill-rule="evenodd" clip-rule="evenodd" d="M148.605 59.6655C159.093 60.1339 163.413 55.2923 161.566 45.1403C160.544 44.267 159.576 44.3416 158.661 45.3637C159.277 53.3884 155.627 56.7404 147.711 55.4197C144.852 54.6613 142.32 53.3205 140.113 51.3973C137.347 51.4058 136.751 52.5978 138.325 54.9728C141.456 57.2847 144.883 58.849 148.605 59.6655Z" fill="#E6097C"/>
</svg>
