<svg width="167" height="167" viewBox="0 0 167 167" fill="none" xmlns="http://www.w3.org/2000/svg">
<g clip-path="url(#clip0_35_681)">
<path opacity="0.929" fill-rule="evenodd" clip-rule="evenodd" d="M46.1284 167.073C48.0843 167.073 50.0403 167.073 51.9963 167.073C58.2499 165.015 63.5199 161.429 67.8071 156.315C72.2217 150.856 75.5361 144.771 77.7499 138.059C81.4379 138.166 85.1324 138.057 88.8338 137.733C91.8343 148.246 97.7022 156.777 106.438 163.324C109.021 164.943 111.738 166.192 114.587 167.073C116.543 167.073 118.499 167.073 120.455 167.073C125.155 165.355 127.926 161.987 128.768 156.967C128.986 154.141 128.986 151.316 128.768 148.491C128.646 147.132 128.32 145.828 127.79 144.579C126.017 143.136 124.495 143.353 123.226 145.231C123.374 147.801 123.646 150.355 124.041 152.892C123.981 155.249 123.383 157.477 122.248 159.575C120.387 161.738 118.05 162.445 115.239 161.694C110.253 159.863 106.07 156.875 102.689 152.729C98.834 148.009 95.9545 142.739 94.0497 136.918C94.1817 136.61 94.3992 136.393 94.7017 136.266C96.9107 135.482 99.0837 134.721 101.222 133.984C103.843 138.521 106.505 143.03 109.209 147.513C110.705 148.448 112.118 148.339 113.446 147.187C113.821 146.452 113.93 145.692 113.772 144.905C111.175 140.299 108.513 135.735 105.786 131.213C107.873 129.704 109.883 128.074 111.816 126.323C114.985 129.71 117.648 133.459 119.803 137.57C122.11 138.673 123.632 138.022 124.367 135.614C122.279 130.647 119.345 126.246 115.565 122.411C122.63 113.875 125.51 104.095 124.204 93.0716C123.275 87.8965 120.938 83.4955 117.195 79.8688C124.611 76.781 132.001 73.6296 139.363 70.4149C145.288 65.5671 146.647 59.6447 143.438 52.6482C139.831 47.4518 134.887 45.4414 128.605 46.6173C126.612 47.3423 124.656 48.1573 122.737 49.0622C122.708 46.8393 122.708 44.5573 122.737 42.2163C131.631 41.7436 137.119 37.1797 139.2 28.5245C139.654 24.9353 139.219 21.4579 137.896 18.0927C136.88 14.241 135.467 10.5465 133.658 7.00879C130.932 3.46555 127.4 1.18358 123.063 0.162888C120.89 0.162888 118.717 0.162888 116.543 0.162888C111.107 1.63672 107.087 4.89667 104.482 9.94275C92.0827 3.82512 79.3688 3.11868 66.3401 7.82379C64.9276 8.53021 63.5147 9.23633 62.1022 9.94275C59.4296 4.98534 55.4091 1.72539 50.0403 0.162888C47.7583 0.162888 45.4764 0.162888 43.1944 0.162888C38.5229 1.29866 34.8828 3.90662 32.2736 7.98679C30.6027 11.9128 29.19 15.9333 28.0356 20.0486C25.9997 26.9545 27.4667 32.9854 32.4366 38.1414C35.7014 40.9674 39.5045 42.3259 43.8464 42.2163C43.9005 44.5009 43.8464 46.7829 43.6834 49.0622C38.1669 45.4166 32.5705 45.2536 26.8946 48.5732C21.6468 52.8816 20.1798 58.2605 22.4937 64.71C24.714 69.3255 28.3543 71.8793 33.4145 72.3709C35.0559 71.3887 35.4364 70.0303 34.5555 68.296C32.877 67.3731 31.1928 66.4495 29.5026 65.525C25.4261 61.0393 25.6434 56.8014 30.1546 52.8112C32.3017 51.4684 34.5836 51.1424 37.0005 51.8332C39.6085 52.9197 42.2164 54.0066 44.8244 55.0931C46.6477 62.5438 50.0165 69.1722 54.9303 74.9789C54.4536 75.6964 53.8017 75.9135 52.9743 75.6309C49.6772 74.2066 46.3628 72.8482 43.0314 71.5559C41.4559 71.8275 40.532 72.7514 40.2605 74.3269C40.4098 75.2498 40.8446 76.0103 41.5644 76.6089C44.1724 77.6954 46.7804 78.7823 49.3883 79.8688C42.932 86.7255 40.5956 94.8213 42.3794 104.155C43.7757 110.967 46.6552 117.053 51.0183 122.411C43.0171 130.919 38.4531 141.025 37.3265 152.729C37.1491 157.748 38.8877 161.931 42.5424 165.28C43.6889 166.038 44.884 166.636 46.1284 167.073ZM47.1064 161.857C49.2286 161.997 51.2934 161.725 53.3003 161.042C58.834 158.117 63.3435 154.042 66.8291 148.817C69.2092 145.089 71.1107 141.123 72.534 136.918C72.402 136.61 72.1845 136.393 71.882 136.266C69.6731 135.482 67.5 134.721 65.3621 133.984C62.5911 138.767 59.6572 143.439 56.5602 148.002C53.9135 148.613 52.6639 147.581 52.8113 144.905C55.3912 140.288 58.0536 135.724 60.7982 131.213C58.6981 129.7 56.688 128.07 54.7673 126.323C47.6583 133.752 43.5833 142.608 42.5424 152.892C42.4039 156.8 43.9253 159.788 47.1064 161.857ZM81.3359 132.843C96.8953 132.428 108.468 125.474 116.054 111.979C119.708 105.061 120.36 97.8892 118.01 90.4637C116.429 86.4904 113.875 83.2849 110.35 80.8468C108.95 82.23 107.32 83.4254 105.46 84.4327C102.656 85.2285 99.9395 85.0111 97.3097 83.7808C95.8173 82.4119 94.2417 81.162 92.5827 80.0318C86.2839 84.4771 80.0899 84.3685 74.001 79.7058C72.3029 81.296 70.5099 82.763 68.6221 84.1068C63.7096 86.0363 59.6888 84.8953 56.5602 80.6838C49.3394 85.7664 46.2425 92.7209 47.2694 101.548C49.4493 113.288 55.6976 122.144 66.0141 128.116C70.8483 130.725 75.9553 132.3 81.3359 132.843ZM63.0801 79.7058C64.4793 79.8574 65.7833 79.5858 66.9921 78.8908C68.4089 77.9089 69.604 76.7135 70.578 75.3049C68.7724 71.2198 68.8809 67.1993 70.904 63.243C69.6001 62.1565 68.2961 61.0696 66.9921 59.9831C64.4783 58.5357 62.4682 59.0247 60.9612 61.4501C60.7437 66.7745 60.7437 72.0994 60.9612 77.4238C61.5134 78.3555 62.2198 79.1161 63.0801 79.7058ZM100.896 79.7058C103.056 80.1195 104.632 79.359 105.623 77.4238C105.84 72.0994 105.84 66.7745 105.623 61.4501C104.539 59.3611 102.855 58.6546 100.57 59.3311C98.88 60.5568 97.25 61.8608 95.6797 63.243C97.4117 67.3164 97.4117 71.3913 95.6797 75.4679C97.4326 76.898 99.1711 78.3106 100.896 79.7058ZM81.6619 78.0758C88.7689 77.9784 92.083 74.3924 91.6048 67.318C88.9762 61.0331 84.5753 59.3487 78.4019 62.265C73.186 67.0464 73.186 71.8275 78.4019 76.6089C79.508 77.137 80.5946 77.626 81.6619 78.0758ZM112.305 75.7939C120.703 72.7227 128.961 69.2997 137.081 65.525C140.612 61.8898 140.884 58.0323 137.896 53.9522C135.508 51.7145 132.737 51.0081 129.583 51.8332C126.975 52.9197 124.367 54.0066 121.759 55.0931C119.818 62.5624 116.341 69.1912 111.327 74.9789C111.677 75.2566 112.003 75.5282 112.305 75.7939ZM55.2562 66.666C54.6023 62.2478 55.9063 58.4988 59.1682 55.4191C62.4842 53.6043 65.8531 53.4954 69.2741 55.0931C70.7665 56.462 72.342 57.7119 74.001 58.8421C80.1825 54.4972 86.3764 54.4972 92.5827 58.8421C94.4983 57.2538 96.5084 55.7869 98.6137 54.4412C104.503 52.8493 108.578 54.8594 110.839 60.4721C110.947 62.5366 111.056 64.6015 111.164 66.666C115.837 58.9497 117.902 50.5823 117.358 41.5643C112.606 39.7456 109.237 36.4856 107.253 31.7845C105.218 26.3876 103.751 20.8457 102.852 15.1587C93.1601 9.84528 82.9457 8.59541 72.208 11.4097C68.9914 12.285 66.003 13.6431 63.2431 15.4847C62.5243 22.0535 60.7855 28.3563 58.0272 34.3924C55.8512 37.7088 52.9172 40.0993 49.2253 41.5643C48.6248 50.5719 50.6353 58.9392 55.2562 66.666ZM122.737 37.3264C130.617 36.1313 134.366 31.5674 133.984 23.6346C132.92 19.7914 131.725 15.988 130.398 12.2247C126.439 5.27026 120.843 3.58585 113.609 7.1718C110.356 9.45638 108.618 12.6078 108.394 16.6257C109.539 22.237 111.332 27.616 113.772 32.7625C116.175 35.4969 119.163 37.0183 122.737 37.3264ZM41.2384 37.0004C46.9939 37.6273 51.2859 35.4542 54.1153 30.4805C55.769 25.9563 57.0186 21.3383 57.8642 16.6257C57.6647 11.429 55.1656 7.84302 50.3663 5.86781C43.6192 4.32455 38.7837 6.66096 35.8595 12.8767C34.9474 15.9394 33.9694 18.982 32.9255 22.0046C31.3867 29.4725 34.1575 34.471 41.2384 37.0004Z" fill="#0091D6"/>
<path opacity="0.905" fill-rule="evenodd" clip-rule="evenodd" d="M61.7762 111.001C62.5445 111.055 63.3051 111 64.0581 110.838C64.6557 110.675 65.0361 110.295 65.1991 109.697C65.4166 107.524 65.4166 105.351 65.1991 103.177C63.6591 101.532 62.1377 101.532 60.6352 103.177C59.9832 105.459 59.9832 107.741 60.6352 110.023C61.0084 110.394 61.3889 110.72 61.7762 111.001Z" fill="#0091D6"/>
<path opacity="0.9" fill-rule="evenodd" clip-rule="evenodd" d="M102.2 111.001C103.076 111.055 103.945 111 104.808 110.838C105.405 110.675 105.786 110.295 105.949 109.697C106.166 107.633 106.166 105.568 105.949 103.503C105.019 102.089 103.769 101.709 102.2 102.362C101.552 102.792 101.171 103.39 101.059 104.155C100.841 105.785 100.841 107.415 101.059 109.045C101.242 109.824 101.623 110.476 102.2 111.001Z" fill="#0091D6"/>
<path opacity="0.926" fill-rule="evenodd" clip-rule="evenodd" d="M79.0539 109.371C82.1313 109.517 85.1742 109.354 88.1818 108.883C89.5572 107.026 89.2312 105.505 87.2038 104.319C86.7823 104.159 86.3474 104.104 85.8998 104.156C85.3779 102.112 86.0844 100.808 88.0188 100.244C89.6273 100.515 90.3878 101.493 90.3008 103.178C91.0946 104.718 92.3444 105.207 94.0497 104.645C95.2569 103.537 95.637 102.179 95.1907 100.57C93.4248 95.9105 90.1104 94.2261 85.2479 95.5167C84.5675 95.7749 83.9696 96.1553 83.4549 96.6577C79.2847 94.0627 75.5902 94.6062 72.371 98.2876C71.7135 99.4505 71.3331 100.7 71.23 102.037C71.5228 104.359 72.8268 105.229 75.142 104.645C76.1728 103.745 76.7707 102.604 76.935 101.222C77.9035 100.051 78.99 99.9421 80.1949 100.896C80.6239 101.935 80.7869 103.022 80.6839 104.156C78.1806 104.324 77.257 105.628 77.913 108.068C78.1379 108.671 78.518 109.105 79.0539 109.371Z" fill="#0091D6"/>
</g>
<defs>
<clipPath id="clip0_35_681">
<rect width="166.91" height="166.91" fill="white" transform="matrix(1 0 0 -1 0 166.91)"/>
</clipPath>
</defs>
</svg>
