<svg width="167" height="167" viewBox="0 0 167 167" fill="none" xmlns="http://www.w3.org/2000/svg">
<g clip-path="url(#clip0_35_690)">
<path opacity="0.929" fill-rule="evenodd" clip-rule="evenodd" d="M46.1284 -0.162964C48.0843 -0.162964 50.0403 -0.162964 51.9963 -0.162964C58.2499 1.89498 63.5199 5.48093 67.8071 10.5949C72.2217 16.0537 75.5361 22.1389 77.7499 28.8506C81.4379 28.744 85.1324 28.8527 88.8338 29.1766C91.8343 18.6634 97.7022 10.1332 106.438 3.58599C109.021 1.96696 111.738 0.717309 114.587 -0.162964C116.543 -0.162964 118.499 -0.162964 120.455 -0.162964C125.155 1.55417 127.926 4.9228 128.768 9.9429C128.986 12.7682 128.986 15.5935 128.768 18.4188C128.646 19.7775 128.32 21.0815 127.79 22.3307C126.017 23.7735 124.495 23.5562 123.226 21.6787C123.374 19.1084 123.646 16.5548 124.041 14.0178C123.981 11.6604 123.383 9.43275 122.248 7.33493C120.387 5.1713 118.05 4.465 115.239 5.21596C110.253 7.04653 106.07 10.0348 102.689 14.1808C98.834 18.9005 95.9545 24.1708 94.0497 29.9916C94.1817 30.2998 94.3992 30.5172 94.7017 30.6436C96.9107 31.4279 99.0837 32.1885 101.222 32.9256C103.843 28.3891 106.505 23.8795 109.209 19.3968C110.705 18.462 112.118 18.5707 113.446 19.7228C113.821 20.4575 113.93 21.2181 113.772 22.0047C111.175 26.611 108.513 31.1749 105.786 35.6966C107.873 37.2059 109.883 38.8359 111.816 40.5865C114.985 37.2 117.648 33.4511 119.803 29.3396C122.11 28.2362 123.632 28.8882 124.367 31.2956C122.279 36.2628 119.345 40.6637 115.565 44.4984C122.63 53.0346 125.51 62.8145 124.204 73.838C123.275 79.0132 120.938 83.4142 117.195 87.0409C124.611 90.1287 132.001 93.2801 139.363 96.4947C145.288 101.343 146.647 107.265 143.438 114.261C139.831 119.458 134.887 121.468 128.605 120.292C126.612 119.567 124.656 118.752 122.737 117.847C122.708 120.07 122.708 122.352 122.737 124.693C131.631 125.166 137.119 129.73 139.2 138.385C139.654 141.974 139.219 145.452 137.896 148.817C136.88 152.669 135.467 156.363 133.658 159.901C130.932 163.444 127.4 165.726 123.063 166.747C120.89 166.747 118.717 166.747 116.543 166.747C111.107 165.273 107.087 162.013 104.482 156.967C92.0827 163.085 79.3688 163.791 66.3401 159.086C64.9276 158.379 63.5147 157.673 62.1022 156.967C59.4296 161.924 55.4091 165.184 50.0403 166.747C47.7583 166.747 45.4764 166.747 43.1944 166.747C38.5229 165.611 34.8828 163.003 32.2736 158.923C30.6027 154.997 29.19 150.976 28.0356 146.861C25.9997 139.955 27.4667 133.924 32.4366 128.768C35.7014 125.942 39.5045 124.584 43.8464 124.693C43.9005 122.409 43.8464 120.127 43.6834 117.847C38.1669 121.493 32.5705 121.656 26.8946 118.336C21.6468 114.028 20.1798 108.649 22.4937 102.2C24.714 97.5842 28.3543 95.0304 33.4145 94.5388C35.0559 95.521 35.4364 96.8794 34.5555 98.6137C32.877 99.5366 31.1928 100.46 29.5026 101.385C25.4261 105.87 25.6434 110.108 30.1546 114.098C32.3017 115.441 34.5836 115.767 37.0005 115.076C39.6085 113.99 42.2164 112.903 44.8244 111.817C46.6477 104.366 50.0165 97.7374 54.9303 91.9308C54.4536 91.2133 53.8017 90.9962 52.9743 91.2788C49.6772 92.7031 46.3628 94.0615 43.0314 95.3537C41.4559 95.0822 40.532 94.1583 40.2605 92.5828C40.4098 91.6599 40.8446 90.8993 41.5644 90.3008C44.1724 89.2143 46.7804 88.1274 49.3883 87.0409C42.932 80.1842 40.5956 72.0884 42.3794 62.7542C43.7757 55.9425 46.6552 49.8571 51.0183 44.4984C43.0171 35.9903 38.4531 25.8845 37.3265 14.1808C37.1491 9.16191 38.8877 4.97831 42.5424 1.63001C43.6889 0.871681 44.884 0.274022 46.1284 -0.162964ZM47.1064 5.05297C49.2286 4.91272 51.2934 5.18437 53.3003 5.86795C58.834 8.79295 63.3435 12.8679 66.8291 18.0928C69.2092 21.8207 71.1107 25.787 72.534 29.9916C72.402 30.2998 72.1845 30.5172 71.882 30.6436C69.6731 31.4279 67.5 32.1885 65.3621 32.9256C62.5911 28.1432 59.6572 23.4705 56.5602 18.9078C53.9135 18.2967 52.6639 19.329 52.8113 22.0047C55.3912 26.6221 58.0536 31.1861 60.7982 35.6966C58.6981 37.2095 56.688 38.8395 54.7673 40.5865C47.6583 33.158 43.5833 24.3019 42.5424 14.0178C42.4039 10.1101 43.9253 7.12183 47.1064 5.05297ZM81.3359 34.0666C96.8953 34.4812 108.468 41.436 116.054 54.9303C119.708 61.8486 120.36 69.0205 118.01 76.446C116.429 80.4192 113.875 83.6247 110.35 86.0629C108.95 84.6797 107.32 83.4842 105.46 82.4769C102.656 81.6812 99.9395 81.8986 97.3097 83.1289C95.8173 84.4978 94.2417 85.7476 92.5827 86.8779C86.2839 82.4326 80.0899 82.5411 74.001 87.2039C72.3029 85.6136 70.5099 84.1467 68.6221 82.8029C63.7096 80.8733 59.6888 82.0143 56.5602 86.2259C49.3394 81.1433 46.2425 74.1888 47.2694 65.3622C49.4493 53.6221 55.6976 44.7657 66.0141 38.7935C70.8483 36.1849 75.9553 34.6094 81.3359 34.0666ZM63.0801 87.2039C64.4793 87.0523 65.7833 87.3238 66.9921 88.0188C68.4089 89.0007 69.604 90.1962 70.578 91.6048C68.7724 95.6898 68.8809 99.7104 70.904 103.667C69.6001 104.753 68.2961 105.84 66.9921 106.927C64.4783 108.374 62.4682 107.885 60.9612 105.46C60.7437 100.135 60.7437 94.8103 60.9612 89.4858C61.5134 88.5541 62.2198 87.7936 63.0801 87.2039ZM100.896 87.2039C103.056 86.7902 104.632 87.5507 105.623 89.4858C105.84 94.8103 105.84 100.135 105.623 105.46C104.539 107.549 102.855 108.255 100.57 107.579C98.88 106.353 97.25 105.049 95.6797 103.667C97.4117 99.5933 97.4117 95.5184 95.6797 91.4418C97.4326 90.0117 99.1711 88.5991 100.896 87.2039ZM81.6619 88.8338C88.7689 88.9313 92.083 92.5173 91.6048 99.5917C88.9762 105.877 84.5753 107.561 78.4019 104.645C73.186 99.8632 73.186 95.0822 78.4019 90.3008C79.508 89.7727 80.5946 89.2837 81.6619 88.8338ZM112.305 91.1158C120.703 94.187 128.961 97.61 137.081 101.385C140.612 105.02 140.884 108.877 137.896 112.958C135.508 115.195 132.737 115.902 129.583 115.076C126.975 113.99 124.367 112.903 121.759 111.817C119.818 104.347 116.341 97.7185 111.327 91.9308C111.677 91.653 112.003 91.3815 112.305 91.1158ZM55.2562 100.244C54.6023 104.662 55.9063 108.411 59.1682 111.491C62.4842 113.305 65.8531 113.414 69.2741 111.817C70.7665 110.448 72.342 109.198 74.001 108.068C80.1825 112.412 86.3764 112.412 92.5827 108.068C94.4983 109.656 96.5084 111.123 98.6137 112.469C104.503 114.06 108.578 112.05 110.839 106.438C110.947 104.373 111.056 102.308 111.164 100.244C115.837 107.96 117.902 116.327 117.358 125.345C112.606 127.164 109.237 130.424 107.253 135.125C105.218 140.522 103.751 146.064 102.852 151.751C93.1601 157.064 82.9457 158.314 72.208 155.5C68.9914 154.625 66.003 153.267 63.2431 151.425C62.5243 144.856 60.7855 138.553 58.0272 132.517C55.8512 129.201 52.9172 126.81 49.2253 125.345C48.6248 116.338 50.6353 107.97 55.2562 100.244ZM122.737 129.583C130.617 130.778 134.366 135.342 133.984 143.275C132.92 147.118 131.725 150.922 130.398 154.685C126.439 161.639 120.843 163.324 113.609 159.738C110.356 157.453 108.618 154.302 108.394 150.284C109.539 144.673 111.332 139.294 113.772 134.147C116.175 131.413 119.163 129.891 122.737 129.583ZM41.2384 129.909C46.9939 129.282 51.2859 131.455 54.1153 136.429C55.769 140.953 57.0186 145.571 57.8642 150.284C57.6647 155.481 55.1656 159.067 50.3663 161.042C43.6192 162.585 38.7837 160.249 35.8595 154.033C34.9474 150.97 33.9694 147.928 32.9255 144.905C31.3867 137.437 34.1575 132.439 41.2384 129.909Z" fill="#E30613"/>
<path opacity="0.905" fill-rule="evenodd" clip-rule="evenodd" d="M61.7762 55.9083C62.5445 55.8551 63.3051 55.9093 64.0581 56.0713C64.6557 56.2343 65.0361 56.6147 65.1991 57.2123C65.4166 59.3857 65.4166 61.5588 65.1991 63.7322C63.6591 65.3775 62.1377 65.3775 60.6352 63.7322C59.9832 61.4502 59.9832 59.1682 60.6352 56.8863C61.0084 56.5159 61.3889 56.1899 61.7762 55.9083Z" fill="#E30613"/>
<path opacity="0.9" fill-rule="evenodd" clip-rule="evenodd" d="M102.2 55.9083C103.076 55.8548 103.945 55.9093 104.808 56.0713C105.405 56.2343 105.786 56.6147 105.949 57.2123C106.166 59.2768 106.166 61.3417 105.949 63.4062C105.019 64.8204 103.769 65.2008 102.2 64.5472C101.552 64.1172 101.171 63.5196 101.059 62.7542C100.841 61.1242 100.841 59.4943 101.059 57.8643C101.243 57.0861 101.623 56.4341 102.2 55.9083Z" fill="#E30613"/>
<path opacity="0.926" fill-rule="evenodd" clip-rule="evenodd" d="M79.0539 57.5382C82.1313 57.3931 85.1742 57.5561 88.1818 58.0272C89.5572 59.8837 89.2312 61.4051 87.2038 62.5911C86.7823 62.7508 86.3474 62.8053 85.8998 62.7541C85.3779 64.7981 86.0844 66.1021 88.0188 66.666C89.6273 66.3951 90.3878 65.4172 90.3008 63.7321C91.0946 62.1921 92.3444 61.7031 94.0497 62.2651C95.2569 63.3722 95.637 64.7306 95.1907 66.3401C93.4248 70.9992 90.1104 72.6836 85.2479 71.393C84.5675 71.1348 83.9696 70.7544 83.4549 70.252C79.2847 72.8469 75.5902 72.3035 72.371 68.622C71.7135 67.4592 71.3331 66.2093 71.23 64.8731C71.5228 62.5504 72.8268 61.6809 75.142 62.2651C76.1728 63.1645 76.7707 64.3055 76.935 65.6881C77.9035 66.859 78.99 66.9676 80.1949 66.0141C80.6239 64.9748 80.7869 63.8879 80.6839 62.7541C78.1806 62.5852 77.257 61.2813 77.913 58.8422C78.1379 58.2391 78.518 57.8042 79.0539 57.5382Z" fill="#E30613"/>
</g>
<defs>
<clipPath id="clip0_35_690">
<rect width="166.91" height="166.91" fill="white"/>
</clipPath>
</defs>
</svg>
