<svg width="229" height="229" viewBox="0 0 229 229" fill="none" xmlns="http://www.w3.org/2000/svg">
<path opacity="0.867" fill-rule="evenodd" clip-rule="evenodd" d="M78.4365 17.2068C84.4996 17.3706 89.49 19.7543 93.4087 24.3578C94.6123 26.4704 95.8042 28.5561 96.9841 30.6148C108.691 25.7236 120.311 25.8726 131.845 31.0617C134.429 22.5986 140.164 17.9804 149.052 17.2068C159.953 18.2759 165.912 24.235 166.929 35.0841C166.762 43.1367 163.037 48.7978 155.756 52.0675C163.846 64.8381 164.516 77.948 157.767 91.3975C156.074 93.8359 154.212 96.1452 152.18 98.3249C166.69 104.647 178.683 114.107 188.158 126.705C190.956 130.961 192.893 135.579 193.968 140.56C194.732 148.192 192.125 154.375 186.147 159.108C180.854 162.089 175.342 162.61 169.611 160.672C168.875 162.629 168.28 164.64 167.823 166.705C174.673 180.277 172.289 192.046 160.672 202.013C150.812 209.616 139.788 212.149 127.599 209.611C122.443 207.727 119.315 204.077 118.213 198.661C115.532 198.065 112.85 198.065 110.169 198.661C108.386 205.595 103.917 209.542 96.7607 210.505C83.1288 211.47 71.7321 206.926 62.5704 196.873C55.3601 187.233 54.6897 177.178 60.5592 166.705C60.1025 164.64 59.5067 162.629 58.7715 160.672C47.819 163.797 39.9978 160.222 35.3076 149.946C33.4112 143.033 34.3051 136.478 37.9892 130.281C45.1754 118.899 54.6351 109.886 66.3693 103.241C69.6605 101.596 72.9383 99.9567 76.2018 98.3249C65.0665 86.5523 62.7577 73.2185 69.2744 58.3246C70.2782 56.1677 71.3955 54.0823 72.6264 52.0675C63.2395 47.4444 59.7387 39.9955 62.1235 29.7209C65.0008 22.1442 70.4386 17.9728 78.4365 17.2068ZM76.6488 21.2292C84.8406 20.7777 90.2037 24.4277 92.7383 32.1791C89.8006 34.4009 86.8214 36.6356 83.7997 38.883C80.5523 41.9797 77.4979 45.1825 74.6376 48.4921C67.0362 45.0587 64.0565 39.2485 65.6989 31.0617C67.6145 25.7913 71.2646 22.5138 76.6488 21.2292ZM146.817 21.2292C157.686 21.1487 163.124 26.5119 163.13 37.3188C161.947 42.6737 158.818 46.3982 153.744 48.4921C148.515 42.0663 142.482 36.6286 135.644 32.1791C137.269 26.3071 140.993 22.6571 146.817 21.2292ZM148.158 96.3137C149.668 90.9738 148.998 85.9087 146.147 81.1181C143.071 76.1053 138.974 72.1575 133.856 69.2744C138.851 65.2556 139 61.0839 134.303 56.7603C127.061 55.0588 123.56 57.9639 123.8 65.4755C117.394 63.6877 110.988 63.6877 104.582 65.4755C104.728 57.5688 101.078 54.8126 93.6322 57.2072C89.2933 61.5804 89.591 65.6028 94.526 69.2744C88.4446 72.6742 83.9007 77.5158 80.8946 83.7996C79.1131 88.0455 78.8897 92.3655 80.2242 96.7607C71.0943 88.5577 67.8911 78.4275 70.6152 66.3693C76.0409 49.9102 86.8415 38.6623 103.018 32.626C114.778 29.3469 125.802 30.9856 136.091 37.5422C146.691 44.5735 153.917 54.1824 157.767 66.3693C160.552 78.3337 157.349 88.315 148.158 96.3137ZM97.2076 59.6653C101.099 60.7058 101.695 62.717 98.9953 65.6989C97.171 66.2768 95.7555 65.7552 94.7495 64.1347C94.303 61.896 95.1222 60.4064 97.2076 59.6653ZM129.387 60.1123C133.419 59.9165 134.611 61.6296 132.962 65.252C129.566 66.6151 127.852 65.4978 127.822 61.9C128.284 61.2175 128.805 60.6218 129.387 60.1123ZM112.403 67.7101C123.715 67.7776 133.175 71.9488 140.783 80.2242C147.013 88.1251 146.342 95.3506 138.772 101.9C123.259 111.156 107.468 111.603 91.3975 103.241C81.9503 96.623 80.8329 88.8017 88.0455 79.7773C94.6784 72.6992 102.798 68.6768 112.403 67.7101ZM79.3303 101.23C81.9212 103.198 84.6028 105.06 87.3751 106.817C72.503 116.971 65.2775 131.049 65.6989 149.052C63.8763 153.704 60.5244 156.609 55.643 157.767C46.842 158.917 41.1065 155.267 38.4361 146.817C37.7321 140.585 39.2219 134.924 42.9054 129.834C49.6094 120.265 58.0269 112.593 68.1571 106.817C71.9225 104.934 75.6472 103.072 79.3303 101.23ZM148.605 101.23C164.297 107.315 176.886 117.296 186.37 131.174C189.467 135.963 190.659 141.177 189.946 146.817C187.423 155.491 181.687 159.142 172.739 157.767C165.139 155.847 161.861 151.079 162.907 143.465C161.176 127.863 153.877 115.572 141.007 106.593C143.805 105.125 146.337 103.337 148.605 101.23ZM90.9506 108.828C94.6431 109.834 98.3674 110.802 102.124 111.733C113.795 113.9 125.192 112.932 136.314 108.828C147.656 115.41 154.956 125.094 158.214 137.878C158.914 140.849 158.988 143.828 158.437 146.817C158.562 149.949 159.531 152.78 161.342 155.309C162.787 156.754 164.203 158.169 165.588 159.555C165.337 161.041 164.89 162.456 164.247 163.8C153.828 158.064 143.697 158.586 133.856 165.365C124.349 172.834 119.135 182.592 118.213 194.639C115.532 194.639 112.85 194.639 110.169 194.639C109.237 182.57 104.023 172.812 94.526 165.365C86.8991 159.966 78.5563 158.477 69.4979 160.895C67.6386 161.75 65.8509 162.718 64.1347 163.8C63.4924 162.456 63.0455 161.041 62.7939 159.555C66.9624 156.362 69.3459 152.116 69.9448 146.817C69.248 139.473 70.8123 132.619 74.6376 126.258C78.9312 119.358 84.3686 113.548 90.9506 108.828ZM74.861 163.353C86.3052 163.451 95.0203 168.368 101.007 178.102C104.252 183.146 106.115 188.658 106.593 194.639C105.967 203.158 101.349 207.329 92.7383 207.153C82.2837 206.58 73.4192 202.557 66.1459 195.086C60.7447 188.536 59.2551 181.236 61.6766 173.186C64.3581 167.598 68.7528 164.32 74.861 163.353ZM149.946 163.353C163.914 164.574 169.65 172.023 167.152 185.7C163.812 194.999 157.48 201.331 148.158 204.695C142.848 206.934 137.336 207.679 131.621 206.929C125.173 205.51 121.896 201.488 121.789 194.862C123.287 181.424 129.991 171.592 141.901 165.365C144.573 164.399 147.255 163.728 149.946 163.353Z" fill="#EA5D0F"/>
<path opacity="0.841" fill-rule="evenodd" clip-rule="evenodd" d="M77.5426 26.1455C79.9274 26.0342 82.1621 26.5555 84.2466 27.7098C86.1179 28.7824 86.416 30.1232 85.1405 31.7321C84.7682 31.8066 84.3954 31.8811 84.0231 31.9556C82.487 31.1146 80.8481 30.5186 79.1069 30.1679C76.0601 30.5332 74.3466 32.2464 73.9672 35.3076C74.4718 37.0609 75.2163 38.6996 76.2018 40.2238C75.5636 42.1744 74.3721 42.6214 72.6264 41.5646C68.8543 36.5749 69.3012 31.9566 73.9672 27.7098C75.1551 27.0492 76.3471 26.5278 77.5426 26.1455Z" fill="#EA5D0F"/>
<path opacity="0.846" fill-rule="evenodd" clip-rule="evenodd" d="M147.711 26.1455C155.799 26.5576 159.151 30.7289 157.767 38.6596C157.029 41.1338 155.464 42.1766 153.074 41.7881C152.734 41.2838 152.435 40.7624 152.18 40.2239C154.915 37.3356 155.064 34.356 152.627 31.2852C151.613 30.5916 150.496 30.2192 149.275 30.1679C147.553 30.5537 145.914 31.1496 144.359 31.9556C142.688 31.7747 142.092 30.8808 142.571 29.274C144.013 27.7005 145.726 26.6577 147.711 26.1455Z" fill="#EA5D0F"/>
<path opacity="0.859" fill-rule="evenodd" clip-rule="evenodd" d="M110.616 73.5202C115.756 73.0858 120.672 73.9051 125.364 75.9784C129.791 80.1617 129.344 83.8859 124.024 87.1517C117.468 90.429 110.914 90.429 104.359 87.1517C99.0378 83.8859 98.5909 80.1617 103.018 75.9784C105.493 74.8047 108.026 73.9851 110.616 73.5202ZM109.722 77.5426C108.079 78.0691 106.44 78.7395 104.805 79.5538C103.57 80.8794 103.719 82.0714 105.252 83.1293C106.444 83.725 107.636 84.3212 108.828 84.917C113.82 86.4178 118.587 85.822 123.13 83.1293C124.286 82.4477 124.658 81.4792 124.247 80.2242C123.143 79.2624 121.877 78.592 120.448 78.213C116.904 77.6039 113.329 77.3804 109.722 77.5426Z" fill="#EA5D0F"/>
<path opacity="0.862" fill-rule="evenodd" clip-rule="evenodd" d="M93.6322 94.526C94.3915 94.4545 95.1365 94.5287 95.8668 94.7495C108.482 101.635 121.07 101.56 133.633 94.526C135.612 95.1303 135.985 96.2476 134.75 97.878C120.918 105.959 107.138 105.884 93.4087 97.6545C92.6024 96.5712 92.6766 95.5285 93.6322 94.526Z" fill="#EA5D0F"/>
<path opacity="0.873" fill-rule="evenodd" clip-rule="evenodd" d="M90.0567 117.766C96.9126 117.19 103.244 118.68 109.051 122.236C112.349 118.667 115.627 118.667 118.884 122.236C126.012 117.831 133.535 116.862 141.454 119.331C142.342 119.92 142.863 120.739 143.018 121.789C144.36 127.888 143.615 133.698 140.783 139.219C140.087 140.233 139.119 140.754 137.878 140.783C130.567 141.945 123.937 140.38 117.99 136.091C116.959 137.158 115.693 137.605 114.191 137.431C112.689 137.605 111.423 137.158 110.392 136.091C103.807 140.702 96.5819 142.117 88.7159 140.336C86.9675 138.704 85.8502 136.693 85.3639 134.303C84.3896 129.497 84.5384 124.73 85.8108 120.001C87.1101 118.943 88.5255 118.198 90.0567 117.766ZM134.75 121.342C129.989 121.566 125.519 122.907 121.342 125.364C120.906 127.903 120.682 130.435 120.672 132.962C125.663 136.783 131.249 138.05 137.431 136.761C138.533 135.398 139.203 133.834 139.443 132.068C139.741 129.387 139.741 126.705 139.443 124.023C139.345 123.381 139.121 122.785 138.772 122.236C137.418 121.937 136.077 121.639 134.75 121.342ZM90.5036 121.789C90.1867 122.193 89.7398 122.342 89.1628 122.236C88.7083 125.501 88.6341 128.778 88.9394 132.068C89.2388 133.637 89.7604 135.127 90.5036 136.538C94.7115 137.745 98.8831 137.521 103.018 135.867C105 135.18 106.639 134.062 107.934 132.515C107.608 130.294 107.385 128.059 107.264 125.811C102.18 122.514 96.5935 121.173 90.5036 121.789ZM113.297 123.577C111.956 124.919 111.211 126.558 111.062 128.493C110.969 130.992 112.012 132.78 114.191 133.856C116.37 132.78 117.413 130.992 117.32 128.493C117.324 125.639 115.983 124 113.297 123.577Z" fill="#EA5D0F"/>
<path opacity="0.843" fill-rule="evenodd" clip-rule="evenodd" d="M74.861 169.164C76.4284 168.937 77.8438 169.235 79.1069 170.057C79.405 170.653 79.405 171.249 79.1069 171.845C69.6941 173.844 67.4594 179.059 72.4029 187.488C73.8376 189.217 75.253 190.931 76.6488 192.628C76.0105 194.578 74.819 195.025 73.0733 193.968C66.1039 187.983 64.5396 180.907 68.3805 172.739C70.2214 170.889 72.3815 169.697 74.861 169.164Z" fill="#EA5D0F"/>
<path opacity="0.849" fill-rule="evenodd" clip-rule="evenodd" d="M148.605 169.164C159.093 168.695 163.413 173.537 161.566 183.689C160.544 184.562 159.576 184.487 158.661 183.465C159.277 175.441 155.627 172.089 147.711 173.409C144.852 174.168 142.32 175.509 140.113 177.432C137.347 177.423 136.751 176.231 138.325 173.856C141.456 171.544 144.883 169.98 148.605 169.164Z" fill="#EA5D0F"/>
</svg>
