<svg width="167" height="167" viewBox="0 0 167 167" fill="none" xmlns="http://www.w3.org/2000/svg">
<g clip-path="url(#clip0_117_954)">
<path opacity="0.929" fill-rule="evenodd" clip-rule="evenodd" d="M46.1284 167.073C48.0843 167.073 50.0403 167.073 51.9963 167.073C58.2499 165.015 63.5199 161.429 67.8071 156.315C72.2217 150.856 75.5361 144.771 77.7499 138.059C81.4379 138.166 85.1324 138.057 88.8338 137.733C91.8343 148.246 97.7022 156.777 106.438 163.324C109.021 164.943 111.738 166.192 114.587 167.073C116.543 167.073 118.499 167.073 120.455 167.073C125.155 165.356 127.926 161.987 128.768 156.967C128.986 154.142 128.986 151.316 128.768 148.491C128.646 147.132 128.32 145.828 127.79 144.579C126.017 143.136 124.495 143.354 123.226 145.231C123.374 147.801 123.646 150.355 124.041 152.892C123.981 155.249 123.383 157.477 122.248 159.575C120.387 161.738 118.05 162.445 115.239 161.694C110.253 159.863 106.07 156.875 102.689 152.729C98.834 148.009 95.9545 142.739 94.0497 136.918C94.1817 136.61 94.3992 136.393 94.7017 136.266C96.9107 135.482 99.0837 134.721 101.222 133.984C103.843 138.521 106.505 143.03 109.209 147.513C110.705 148.448 112.118 148.339 113.446 147.187C113.821 146.452 113.93 145.692 113.772 144.905C111.175 140.299 108.513 135.735 105.786 131.213C107.873 129.704 109.883 128.074 111.816 126.323C114.985 129.71 117.648 133.459 119.803 137.57C122.11 138.674 123.632 138.022 124.367 135.614C122.279 130.647 119.345 126.246 115.565 122.411C122.63 113.875 125.51 104.095 124.204 93.0718C123.275 87.8966 120.938 83.4956 117.195 79.8689C124.611 76.7811 132.001 73.6297 139.363 70.4151C145.288 65.5672 146.647 59.6448 143.438 52.6483C139.831 47.4519 134.887 45.4415 128.605 46.6174C126.612 47.3424 124.656 48.1574 122.737 49.0623C122.708 46.8394 122.708 44.5574 122.737 42.2164C131.631 41.7437 137.119 37.1798 139.2 28.5246C139.654 24.9354 139.219 21.458 137.896 18.0928C136.88 14.2411 135.467 10.5466 133.658 7.00891C130.932 3.46567 127.4 1.1837 123.063 0.16301C120.89 0.16301 118.717 0.16301 116.543 0.16301C111.107 1.63684 107.087 4.89679 104.482 9.94287C92.0827 3.82524 79.3688 3.1188 66.3401 7.82391C64.9276 8.53033 63.5147 9.23645 62.1022 9.94287C59.4296 4.98546 55.4091 1.72551 50.0403 0.16301C47.7583 0.16301 45.4764 0.16301 43.1944 0.16301C38.5229 1.29878 34.8828 3.90674 32.2736 7.98691C30.6027 11.9129 29.19 15.9334 28.0356 20.0487C25.9997 26.9546 27.4667 32.9855 32.4366 38.1415C35.7014 40.9676 39.5045 42.326 43.8464 42.2164C43.9005 44.501 43.8464 46.783 43.6834 49.0623C38.1669 45.4167 32.5705 45.2537 26.8946 48.5734C21.6468 52.8817 20.1798 58.2606 22.4937 64.7101C24.714 69.3256 28.3543 71.8794 33.4145 72.371C35.0559 71.3888 35.4364 70.0304 34.5555 68.2961C32.877 67.3732 31.1928 66.4496 29.5026 65.5251C25.4261 61.0394 25.6434 56.8015 30.1546 52.8113C32.3017 51.4685 34.5836 51.1425 37.0005 51.8333C39.6085 52.9199 42.2164 54.0067 44.8244 55.0933C46.6477 62.5439 50.0165 69.1724 54.9303 74.979C54.4536 75.6965 53.8017 75.9136 52.9743 75.631C49.6772 74.2067 46.3628 72.8483 43.0314 71.556C41.4559 71.8276 40.532 72.7515 40.2605 74.327C40.4098 75.2499 40.8446 76.0105 41.5644 76.609C44.1724 77.6955 46.7804 78.7824 49.3883 79.8689C42.932 86.7256 40.5956 94.8214 42.3794 104.156C43.7757 110.967 46.6552 117.053 51.0183 122.411C43.0171 130.92 38.4531 141.025 37.3265 152.729C37.1491 157.748 38.8877 161.931 42.5424 165.28C43.6889 166.038 44.884 166.636 46.1284 167.073ZM47.1064 161.857C49.2286 161.997 51.2934 161.725 53.3003 161.042C58.834 158.117 63.3435 154.042 66.8291 148.817C69.2092 145.089 71.1107 141.123 72.534 136.918C72.402 136.61 72.1845 136.393 71.882 136.266C69.6731 135.482 67.5 134.721 65.3621 133.984C62.5911 138.767 59.6572 143.439 56.5602 148.002C53.9135 148.613 52.6639 147.581 52.8113 144.905C55.3912 140.288 58.0536 135.724 60.7982 131.213C58.6981 129.7 56.688 128.07 54.7673 126.323C47.6583 133.752 43.5833 142.608 42.5424 152.892C42.4039 156.8 43.9253 159.788 47.1064 161.857ZM81.3359 132.843C96.8953 132.429 108.468 125.474 116.054 111.979C119.708 105.061 120.36 97.8893 118.01 90.4638C116.429 86.4906 113.875 83.285 110.35 80.8469C108.95 82.2301 107.32 83.4255 105.46 84.4329C102.656 85.2286 99.9395 85.0112 97.3097 83.7809C95.8173 82.412 94.2417 81.1622 92.5827 80.0319C86.2839 84.4772 80.0899 84.3687 74.001 79.7059C72.3029 81.2961 70.5099 82.7631 68.6221 84.1069C63.7096 86.0364 59.6888 84.8955 56.5602 80.6839C49.3394 85.7665 46.2425 92.721 47.2694 101.548C49.4493 113.288 55.6976 122.144 66.0141 128.116C70.8483 130.725 75.9553 132.3 81.3359 132.843ZM63.0801 79.7059C64.4793 79.8575 65.7833 79.586 66.9921 78.8909C68.4089 77.909 69.604 76.7136 70.578 75.305C68.7724 71.2199 68.8809 67.1994 70.904 63.2432C69.6001 62.1566 68.2961 61.0697 66.9921 59.9832C64.4783 58.5358 62.4682 59.0248 60.9612 61.4502C60.7437 66.7747 60.7437 72.0995 60.9612 77.424C61.5134 78.3557 62.2198 79.1162 63.0801 79.7059ZM100.896 79.7059C103.056 80.1196 104.632 79.3591 105.623 77.424C105.84 72.0995 105.84 66.7747 105.623 61.4502C104.539 59.3612 102.855 58.6548 100.57 59.3312C98.88 60.557 97.25 61.8609 95.6797 63.2432C97.4117 67.3165 97.4117 71.3914 95.6797 75.468C97.4326 76.8981 99.1711 78.3107 100.896 79.7059ZM81.6619 78.076C88.7689 77.9785 92.083 74.3925 91.6048 67.3181C88.9762 61.0332 84.5753 59.3488 78.4019 62.2652C73.186 67.0465 73.186 71.8276 78.4019 76.609C79.508 77.1371 80.5946 77.6261 81.6619 78.076ZM112.305 75.794C120.703 72.7228 128.961 69.2998 137.081 65.5251C140.612 61.8899 140.884 58.0324 137.896 53.9523C135.508 51.7146 132.737 51.0082 129.583 51.8333C126.975 52.9199 124.367 54.0067 121.759 55.0933C119.818 62.5625 116.341 69.1913 111.327 74.979C111.677 75.2567 112.003 75.5283 112.305 75.794ZM55.2562 66.6661C54.6023 62.2479 55.9063 58.4989 59.1682 55.4193C62.4842 53.6044 65.8531 53.4956 69.2741 55.0933C70.7665 56.4621 72.342 57.712 74.001 58.8422C80.1825 54.4973 86.3764 54.4973 92.5827 58.8422C94.4983 57.254 96.5084 55.787 98.6137 54.4413C104.503 52.8494 108.578 54.8595 110.839 60.4722C110.947 62.5367 111.056 64.6016 111.164 66.6661C115.837 58.9498 117.902 50.5825 117.358 41.5645C112.606 39.7457 109.237 36.4858 107.253 31.7846C105.218 26.3877 103.751 20.8458 102.852 15.1588C93.1601 9.8454 82.9457 8.59554 72.208 11.4099C68.9914 12.2852 66.003 13.6432 63.2431 15.4848C62.5243 22.0536 60.7855 28.3564 58.0272 34.3925C55.8512 37.7089 52.9172 40.0994 49.2253 41.5645C48.6248 50.572 50.6353 58.9394 55.2562 66.6661ZM122.737 37.3265C130.617 36.1314 134.366 31.5675 133.984 23.6347C132.92 19.7915 131.725 15.9881 130.398 12.2249C126.439 5.27039 120.843 3.58597 113.609 7.17192C110.356 9.4565 108.618 12.6079 108.394 16.6258C109.539 22.2372 111.332 27.6161 113.772 32.7626C116.175 35.497 119.163 37.0184 122.737 37.3265ZM41.2384 37.0005C46.9939 37.6274 51.2859 35.4543 54.1153 30.4806C55.769 25.9564 57.0186 21.3384 57.8642 16.6258C57.6647 11.4291 55.1656 7.84314 50.3663 5.86794C43.6192 4.32468 38.7837 6.66109 35.8595 12.8768C34.9474 15.9396 33.9694 18.9821 32.9255 22.0047C31.3867 29.4726 34.1575 34.4711 41.2384 37.0005Z" fill="#98BD1E"/>
<path opacity="0.905" fill-rule="evenodd" clip-rule="evenodd" d="M61.7765 111.002C62.5448 111.055 63.3054 111.001 64.0584 110.839C64.656 110.676 65.0364 110.295 65.1994 109.698C65.4169 107.524 65.4169 105.351 65.1994 103.178C63.6594 101.532 62.138 101.532 60.6355 103.178C59.9835 105.46 59.9835 107.742 60.6355 110.024C61.0087 110.394 61.3892 110.72 61.7765 111.002Z" fill="#98BD1E"/>
<path opacity="0.9" fill-rule="evenodd" clip-rule="evenodd" d="M102.2 111.001C103.076 111.055 103.945 111 104.808 110.838C105.405 110.675 105.786 110.295 105.949 109.697C106.166 107.633 106.166 105.568 105.949 103.503C105.019 102.089 103.769 101.709 102.2 102.362C101.552 102.792 101.171 103.39 101.059 104.155C100.841 105.785 100.841 107.415 101.059 109.045C101.242 109.824 101.623 110.476 102.2 111.001Z" fill="#98BD1E"/>
<path opacity="0.926" fill-rule="evenodd" clip-rule="evenodd" d="M79.0544 109.371C82.1318 109.516 85.1746 109.353 88.1822 108.882C89.5576 107.026 89.2316 105.504 87.2043 104.318C86.7827 104.159 86.3479 104.104 85.9003 104.155C85.3784 102.111 86.0848 100.807 88.0192 100.243C89.6277 100.514 90.3883 101.492 90.3012 103.177C91.095 104.717 92.3449 105.206 94.0502 104.644C95.2573 103.537 95.6374 102.179 95.1911 100.569C93.4252 95.9104 90.1108 94.2259 85.2483 95.5166C84.5679 95.7747 83.9701 96.1552 83.4553 96.6575C79.2852 94.0626 75.5907 94.6061 72.3715 98.2875C71.7139 99.4503 71.3335 100.7 71.2305 102.036C71.5232 104.359 72.8272 105.229 75.1424 104.644C76.1732 103.745 76.7711 102.604 76.9354 101.221C77.9039 100.051 78.9905 99.9419 80.1953 100.895C80.6244 101.935 80.7874 103.022 80.6843 104.155C78.181 104.324 77.2575 105.628 77.9134 108.067C78.1383 108.67 78.5184 109.105 79.0544 109.371Z" fill="#98BD1E"/>
</g>
<defs>
<clipPath id="clip0_117_954">
<rect width="166.91" height="166.91" fill="white" transform="matrix(1 0 0 -1 0 166.91)"/>
</clipPath>
</defs>
</svg>
