<svg width="230" height="230" viewBox="0 0 230 230" fill="none" xmlns="http://www.w3.org/2000/svg">
<path opacity="0.867" fill-rule="evenodd" clip-rule="evenodd" d="M78.8123 211.998C84.8754 211.834 89.8659 209.451 93.7845 204.847C94.9881 202.735 96.1801 200.649 97.36 198.59C109.067 203.482 120.687 203.333 132.221 198.143C134.804 206.607 140.54 211.225 149.428 211.998C160.329 210.929 166.288 204.97 167.305 194.121C167.138 186.068 163.413 180.407 156.131 177.138C164.221 164.367 164.892 151.257 158.143 137.808C156.45 135.369 154.588 133.06 152.556 130.88C167.066 124.558 179.059 115.098 188.534 102.5C191.332 98.2439 193.269 93.6258 194.344 88.6452C195.107 81.0129 192.501 74.8305 186.523 70.0975C181.229 67.1165 175.717 66.5954 169.986 68.5333C169.251 66.5766 168.655 64.5654 168.199 62.4997C175.049 48.9286 172.665 37.1596 161.048 27.1921C151.188 19.5889 140.164 17.0561 127.975 19.5943C122.819 21.4781 119.69 25.1282 118.589 30.5441C115.908 31.1398 113.226 31.1398 110.544 30.5441C108.762 23.6104 104.293 19.6626 97.1365 18.7004C83.5047 17.7355 72.1079 22.279 62.9463 32.3318C55.7359 41.9717 55.0655 52.0276 60.9351 62.4997C60.4783 64.5654 59.8826 66.5766 59.1474 68.5333C48.1948 65.4079 40.3737 68.9833 35.6834 79.2596C33.7871 86.1719 34.6809 92.727 38.365 98.9246C45.5512 110.306 55.011 119.319 66.7452 125.964C70.0364 127.61 73.3142 129.248 76.5777 130.88C65.4424 142.653 63.1335 155.987 69.6502 170.881C70.6541 173.037 71.7714 175.123 73.0022 177.138C63.6153 181.761 60.1145 189.21 62.4993 199.484C65.3767 207.061 70.8145 211.232 78.8123 211.998ZM77.0246 207.976C85.2164 208.427 90.5796 204.777 93.1141 197.026C90.1765 194.804 87.1972 192.57 84.1755 190.322C80.9281 187.225 77.8738 184.023 75.0134 180.713C67.412 184.146 64.4323 189.957 66.0748 198.143C67.9903 203.414 71.6404 206.691 77.0246 207.976ZM147.193 207.976C158.062 208.056 163.5 202.693 163.506 191.886C162.322 186.531 159.194 182.807 154.12 180.713C148.891 187.139 142.858 192.577 136.02 197.026C137.645 202.898 141.369 206.548 147.193 207.976ZM148.534 132.891C150.044 138.231 149.373 143.296 146.522 148.087C143.447 153.1 139.35 157.048 134.232 159.931C139.227 163.95 139.376 168.121 134.679 172.445C127.437 174.146 123.936 171.241 124.176 163.73C117.77 165.517 111.364 165.517 104.958 163.73C105.104 171.636 101.453 174.393 94.008 171.998C89.6692 167.625 89.9669 163.602 94.9019 159.931C88.8205 156.531 84.2765 151.689 81.2705 145.405C79.489 141.16 79.2655 136.84 80.6001 132.444C71.4701 140.647 68.267 150.778 70.991 162.836C76.4168 179.295 87.2173 190.543 103.394 196.579C115.154 199.858 126.178 198.22 136.467 191.663C147.067 184.632 154.293 175.023 158.143 162.836C160.928 150.871 157.725 140.89 148.534 132.891ZM97.5835 169.54C101.475 168.499 102.071 166.488 99.3712 163.506C97.5468 162.928 96.1314 163.45 95.1253 165.07C94.6789 167.309 95.4981 168.799 97.5835 169.54ZM129.763 169.093C133.795 169.289 134.987 167.576 133.338 163.953C129.942 162.59 128.228 163.707 128.198 167.305C128.66 167.988 129.181 168.583 129.763 169.093ZM112.779 161.495C124.091 161.428 133.551 157.256 141.159 148.981C147.389 141.08 146.718 133.855 139.148 127.305C123.635 118.049 107.844 117.602 91.7734 125.964C82.3261 132.582 81.2088 140.403 88.4214 149.428C95.0543 156.506 103.174 160.528 112.779 161.495ZM79.7062 127.975C82.2971 126.007 84.9787 124.145 87.751 122.389C72.8789 112.234 65.6533 98.1559 66.0748 80.1535C64.2522 75.5014 60.9002 72.5963 56.0188 71.4383C47.2179 70.2884 41.4824 73.9385 38.812 82.3881C38.108 88.6202 39.5977 94.281 43.2813 99.3715C49.9853 108.94 58.4028 116.612 68.5329 122.389C72.2983 124.271 76.023 126.133 79.7062 127.975ZM148.981 127.975C164.673 121.89 177.262 111.909 186.746 98.0307C189.843 93.2419 191.035 88.028 190.322 82.3881C187.798 73.7137 182.062 70.0636 173.115 71.4383C165.514 73.3583 162.237 78.1258 163.282 85.7401C161.552 101.342 154.253 113.633 141.383 122.612C144.181 124.08 146.713 125.868 148.981 127.975ZM91.3264 120.377C95.019 119.371 98.7433 118.403 102.5 117.472C114.171 115.305 125.568 116.273 136.69 120.377C148.032 113.795 155.332 104.111 158.59 91.3268C159.29 88.3565 159.364 85.3768 158.813 82.3881C158.938 79.256 159.907 76.4256 161.718 73.8964C163.163 72.4515 164.578 71.0361 165.964 69.6506C165.712 68.1641 165.265 66.7487 164.623 65.4047C154.203 71.1411 144.073 70.6195 134.232 63.8405C124.725 56.3714 119.51 46.6135 118.589 34.5665C115.908 34.5665 113.226 34.5665 110.544 34.5665C109.613 46.6354 104.399 56.3933 94.9019 63.8405C87.275 69.239 78.9321 70.7286 69.8737 68.3098C68.0145 67.4553 66.2267 66.4868 64.5105 65.4047C63.8683 66.7487 63.4214 68.1641 63.1697 69.6506C67.3383 72.843 69.7218 77.0889 70.3206 82.3881C69.6239 89.7326 71.1881 96.5858 75.0134 102.947C79.3071 109.847 84.7445 115.657 91.3264 120.377ZM75.2369 65.8517C86.681 65.7538 95.3962 60.8376 101.382 51.1029C104.628 46.0589 106.49 40.5469 106.969 34.5665C106.343 26.0475 101.725 21.8763 93.1141 22.0524C82.6595 22.6254 73.7951 26.6477 66.5217 34.1195C61.1206 40.6693 59.6309 47.9691 62.0524 56.0192C64.734 61.6072 69.1287 64.885 75.2369 65.8517ZM150.321 65.8517C164.29 64.6307 170.026 57.1821 167.528 43.5051C164.188 34.2058 157.856 27.8741 148.534 24.5105C143.224 22.2709 137.712 21.5259 131.997 22.2758C125.549 23.6949 122.272 27.7172 122.165 34.343C123.663 47.7809 130.367 57.6134 142.277 63.8405C144.949 64.8063 147.63 65.4767 150.321 65.8517Z" fill="#E30613"/>
<path opacity="0.841" fill-rule="evenodd" clip-rule="evenodd" d="M77.9188 203.06C80.3036 203.171 82.5383 202.649 84.6228 201.495C86.4941 200.423 86.7922 199.082 85.5166 197.473C85.1443 197.398 84.7716 197.324 84.3993 197.249C82.8632 198.09 81.2243 198.686 79.483 199.037C76.4363 198.672 74.7228 196.959 74.3433 193.897C74.8479 192.144 75.5925 190.505 76.578 188.981C75.9398 187.031 74.7482 186.584 73.0025 187.64C69.2304 192.63 69.6774 197.248 74.3433 201.495C75.5313 202.156 76.7232 202.677 77.9188 203.06Z" fill="#E30613"/>
<path opacity="0.846" fill-rule="evenodd" clip-rule="evenodd" d="M148.087 203.06C156.174 202.647 159.526 198.476 158.143 190.545C157.404 188.071 155.84 187.028 153.45 187.417C153.109 187.921 152.811 188.443 152.556 188.981C155.291 191.87 155.44 194.849 153.003 197.92C151.989 198.613 150.872 198.986 149.651 199.037C147.928 198.651 146.29 198.055 144.735 197.249C143.064 197.43 142.467 198.324 142.947 199.931C144.388 201.505 146.101 202.547 148.087 203.06Z" fill="#E30613"/>
<path opacity="0.859" fill-rule="evenodd" clip-rule="evenodd" d="M110.991 155.685C116.132 156.119 121.048 155.3 125.74 153.227C130.167 149.044 129.72 145.319 124.399 142.054C117.844 138.776 111.29 138.776 104.734 142.054C99.4137 145.319 98.9668 149.044 103.394 153.227C105.869 154.4 108.401 155.22 110.991 155.685ZM110.098 151.663C108.455 151.136 106.816 150.466 105.181 149.651C103.946 148.326 104.094 147.134 105.628 146.076C106.82 145.48 108.012 144.884 109.204 144.288C114.196 142.787 118.963 143.383 123.506 146.076C124.662 146.757 125.034 147.726 124.623 148.981C123.519 149.943 122.253 150.613 120.824 150.992C117.28 151.601 113.705 151.825 110.098 151.663Z" fill="#E30613"/>
<path opacity="0.862" fill-rule="evenodd" clip-rule="evenodd" d="M94.0081 134.679C94.7674 134.751 95.5125 134.676 96.2427 134.456C108.858 127.57 121.446 127.645 134.008 134.679C135.988 134.075 136.361 132.957 135.126 131.327C121.294 123.247 107.513 123.321 93.7846 131.55C92.9784 132.634 93.0525 133.677 94.0081 134.679Z" fill="#E30613"/>
<path opacity="0.873" fill-rule="evenodd" clip-rule="evenodd" d="M90.4326 111.439C97.2885 112.015 103.62 110.525 109.427 106.969C112.725 110.538 116.003 110.538 119.26 106.969C126.388 111.374 133.911 112.343 141.83 109.874C142.718 109.285 143.239 108.466 143.394 107.416C144.736 101.317 143.991 95.5073 141.159 89.9859C140.463 88.9722 139.495 88.4511 138.254 88.4216C130.942 87.2605 124.313 88.8247 118.366 93.1144C117.335 92.0471 116.069 91.6002 114.567 91.7736C113.065 91.6002 111.799 92.0471 110.768 93.1144C104.183 88.503 96.9578 87.088 89.0918 88.8685C87.3434 90.5007 86.2261 92.5119 85.7398 94.9021C84.7655 99.708 84.9143 104.475 86.1868 109.204C87.486 110.262 88.9014 111.007 90.4326 111.439ZM135.126 107.863C130.365 107.639 125.895 106.298 121.718 103.841C121.282 101.302 121.058 98.7699 121.047 96.2429C126.039 92.4216 131.625 91.155 137.807 92.444C138.909 93.8067 139.579 95.371 139.819 97.1368C140.117 99.8184 140.117 102.5 139.819 105.182C139.721 105.824 139.497 106.42 139.148 106.969C137.794 107.268 136.453 107.566 135.126 107.863ZM90.8795 107.416C90.5627 107.012 90.1157 106.863 89.5387 106.969C89.0842 103.704 89.01 100.427 89.3153 97.1368C89.6147 95.5676 90.1363 94.078 90.8795 92.6675C95.0874 91.4603 99.2591 91.6838 103.394 93.3379C105.376 94.0252 107.015 95.1426 108.31 96.6898C107.984 98.9111 107.761 101.146 107.639 103.394C102.556 106.691 96.9694 108.032 90.8795 107.416ZM113.673 105.628C112.332 104.286 111.587 102.647 111.438 100.712C111.345 98.213 112.388 96.4253 114.567 95.3491C116.746 96.4253 117.789 98.213 117.695 100.712C117.7 103.566 116.359 105.205 113.673 105.628Z" fill="#E30613"/>
<path opacity="0.843" fill-rule="evenodd" clip-rule="evenodd" d="M75.237 60.0415C76.8044 60.2677 78.2198 59.97 79.4829 59.1477C79.781 58.5519 79.781 57.9557 79.4829 57.3599C70.07 55.3608 67.8354 50.1465 72.7789 41.7173C74.2135 39.9882 75.629 38.2746 77.0247 36.5776C76.3865 34.6272 75.195 34.1803 73.4493 35.2368C66.4798 41.2217 64.9156 48.298 68.7565 56.4661C70.5974 58.3159 72.7574 59.5079 75.237 60.0415Z" fill="#E30613"/>
<path opacity="0.849" fill-rule="evenodd" clip-rule="evenodd" d="M148.981 60.0415C159.469 60.5099 163.79 55.6683 161.942 45.5162C160.921 44.6429 159.952 44.7176 159.037 45.7397C159.654 53.7644 156.004 57.1164 148.087 55.7957C145.228 55.0372 142.696 53.6964 140.489 51.7733C137.724 51.7818 137.127 52.9737 138.702 55.3487C141.833 57.6607 145.259 59.225 148.981 60.0415Z" fill="#E30613"/>
</svg>
