<svg width="168" height="168" viewBox="0 0 168 168" fill="none" xmlns="http://www.w3.org/2000/svg">
<g clip-path="url(#clip0_125_763)">
<path opacity="0.929" fill-rule="evenodd" clip-rule="evenodd" d="M47.0502 167.994C49.0062 167.994 50.9622 167.994 52.9182 167.994C59.1717 165.936 64.4418 162.35 68.729 157.236C73.1436 151.777 76.458 145.692 78.6718 138.98C82.3598 139.087 86.0543 138.978 89.7557 138.654C92.7561 149.167 98.6241 157.698 107.359 164.245C109.943 165.864 112.66 167.113 115.509 167.994C117.465 167.994 119.421 167.994 121.377 167.994C126.077 166.277 128.848 162.908 129.69 157.888C129.908 155.062 129.908 152.237 129.69 149.412C129.568 148.053 129.242 146.749 128.712 145.5C126.938 144.057 125.417 144.275 124.148 146.152C124.296 148.722 124.568 151.276 124.963 153.813C124.903 156.17 124.305 158.398 123.17 160.496C121.308 162.659 118.972 163.366 116.161 162.615C111.175 160.784 106.991 157.796 103.61 153.65C99.7559 148.93 96.8764 143.66 94.9716 137.839C95.1036 137.531 95.3211 137.314 95.6236 137.187C97.8325 136.403 100.006 135.642 102.144 134.905C104.765 139.442 107.427 143.951 110.13 148.434C111.627 149.369 113.04 149.26 114.368 148.108C114.743 147.373 114.852 146.613 114.694 145.826C112.097 141.22 109.435 136.656 106.707 132.134C108.794 130.625 110.805 128.995 112.738 127.244C115.907 130.631 118.569 134.38 120.725 138.491C123.032 139.595 124.553 138.943 125.289 136.535C123.201 131.568 120.267 127.167 116.487 123.332C123.552 114.796 126.432 105.016 125.126 93.9927C124.196 88.8175 121.86 84.4165 118.117 80.7898C125.533 77.702 132.922 74.5506 140.285 71.336C146.21 66.4881 147.569 60.5657 144.36 53.5692C140.753 48.3728 135.809 46.3624 129.527 47.5383C127.534 48.2633 125.578 49.0783 123.659 49.9832C123.63 47.7603 123.63 45.4783 123.659 43.1373C132.553 42.6646 138.041 38.1007 140.122 29.4455C140.576 25.8563 140.141 22.3789 138.818 19.0137C137.802 15.162 136.389 11.4675 134.58 7.92981C131.854 4.38657 128.322 2.1046 123.985 1.08391C121.812 1.08391 119.639 1.08391 117.465 1.08391C112.029 2.55774 108.008 5.81769 105.403 10.8638C93.0045 4.74614 80.2907 4.0397 67.262 8.74481C65.8494 9.45123 64.4366 10.1573 63.024 10.8638C60.3515 5.90636 56.331 2.64641 50.9622 1.08391C48.6802 1.08391 46.3983 1.08391 44.1163 1.08391C39.4448 2.21968 35.8047 4.82764 33.1954 8.90781C31.5245 12.8338 30.1119 16.8543 28.9575 20.9696C26.9216 27.8755 28.3885 33.9064 33.3584 39.0624C36.6233 41.8885 40.4263 43.2469 44.7683 43.1373C44.8224 45.4219 44.7683 47.7039 44.6053 49.9832C39.0888 46.3376 33.4924 46.1746 27.8165 49.4943C22.5687 53.8026 21.1017 59.1815 23.4156 65.631C25.6359 70.2465 29.2762 72.8003 34.3364 73.2919C35.9778 72.3097 36.3582 70.9513 35.4774 69.217C33.7989 68.2941 32.1147 67.3705 30.4245 66.446C26.3479 61.9603 26.5652 57.7224 31.0765 53.7322C33.2236 52.3894 35.5054 52.0634 37.9224 52.7542C40.5303 53.8408 43.1383 54.9276 45.7463 56.0142C47.5696 63.4648 50.9384 70.0933 55.8521 75.8999C55.3755 76.6174 54.7235 76.8345 53.8962 76.5519C50.599 75.1276 47.2846 73.7692 43.9533 72.4769C42.3778 72.7485 41.4539 73.6724 41.1823 75.2479C41.3316 76.1708 41.7665 76.9314 42.4863 77.5299C45.0943 78.6164 47.7022 79.7033 50.3102 80.7898C43.8539 87.6465 41.5174 95.7423 43.3013 105.077C44.6975 111.888 47.5771 117.974 51.9402 123.332C43.9389 131.84 39.375 141.946 38.2484 153.65C38.071 158.669 39.8096 162.852 43.4643 166.201C44.6108 166.959 45.8059 167.557 47.0502 167.994ZM48.0282 162.778C50.1505 162.918 52.2153 162.646 54.2221 161.963C59.7559 159.038 64.2654 154.963 67.751 149.738C70.1311 146.01 72.0326 142.044 73.4559 137.839C73.3239 137.531 73.1064 137.314 72.8039 137.187C70.5949 136.403 68.4219 135.642 66.284 134.905C63.513 139.688 60.5791 144.36 57.4821 148.923C54.8353 149.534 53.5858 148.502 53.7332 145.826C56.3131 141.209 58.9755 136.645 61.72 132.134C59.62 130.621 57.6099 128.991 55.6891 127.244C48.5801 134.673 44.5052 143.529 43.4643 153.813C43.3257 157.721 44.8472 160.709 48.0282 162.778ZM82.2578 133.764C97.8172 133.349 109.39 126.395 116.976 112.9C120.63 105.982 121.282 98.8102 118.932 91.3847C117.351 87.4115 114.797 84.2059 111.271 81.7678C109.872 83.151 108.242 84.3464 106.381 85.3538C103.578 86.1495 100.861 85.9321 98.2316 84.7018C96.7391 83.3329 95.1636 82.0831 93.5046 80.9528C87.2057 85.3981 81.0118 85.2896 74.9229 80.6268C73.2248 82.217 71.4318 83.684 69.5439 85.0278C64.6315 86.9573 60.6107 85.8164 57.4821 81.6048C50.2613 86.6874 47.1643 93.6419 48.1912 102.469C50.3712 114.209 56.6195 123.065 66.936 129.037C71.7702 131.646 76.8772 133.221 82.2578 133.764ZM64.002 80.6268C65.4012 80.7784 66.7052 80.5069 67.914 79.8118C69.3307 78.8299 70.5258 77.6345 71.4999 76.2259C69.6942 72.1408 69.8028 68.1203 71.8259 64.1641C70.5219 63.0775 69.2179 61.9906 67.914 60.9041C65.4002 59.4567 63.3901 59.9457 61.883 62.3711C61.6656 67.6956 61.6656 73.0204 61.883 78.3449C62.4353 79.2766 63.1417 80.0371 64.002 80.6268ZM101.818 80.6268C103.978 81.0405 105.554 80.28 106.544 78.3449C106.762 73.0204 106.762 67.6956 106.544 62.3711C105.461 60.2821 103.777 59.5757 101.492 60.2521C99.8019 61.4779 98.1719 62.7818 96.6016 64.1641C98.3336 68.2374 98.3336 72.3123 96.6016 76.3889C98.3545 77.819 100.093 79.2316 101.818 80.6268ZM82.5838 78.9969C89.6908 78.8994 93.0049 75.3134 92.5266 68.239C89.8981 61.9541 85.4972 60.2697 79.3238 63.1861C74.1079 67.9674 74.1079 72.7485 79.3238 77.5299C80.4299 78.058 81.5165 78.547 82.5838 78.9969ZM113.227 76.7149C121.625 73.6437 129.883 70.2207 138.003 66.446C141.534 62.8108 141.806 58.9533 138.818 54.8732C136.429 52.6355 133.658 51.9291 130.505 52.7542C127.897 53.8408 125.289 54.9276 122.681 56.0142C120.74 63.4834 117.263 70.1122 112.249 75.8999C112.599 76.1776 112.925 76.4492 113.227 76.7149ZM56.1781 67.587C55.5242 63.1688 56.8282 59.4198 60.0901 56.3402C63.4061 54.5253 66.7749 54.4165 70.1959 56.0142C71.6883 57.383 73.2639 58.6329 74.9229 59.7631C81.1044 55.4182 87.2983 55.4182 93.5046 59.7631C95.4202 58.1749 97.4303 56.7079 99.5355 55.3622C105.425 53.7703 109.5 55.7804 111.76 61.3931C111.869 63.4576 111.978 65.5225 112.086 67.587C116.759 59.8707 118.824 51.5034 118.28 42.4854C113.528 40.6666 110.159 37.4067 108.174 32.7055C106.14 27.3086 104.673 21.7667 103.773 16.0797C94.082 10.7663 83.8675 9.51643 73.1299 12.3307C69.9133 13.2061 66.9249 14.5641 64.165 16.4057C63.4462 22.9745 61.7073 29.2773 58.9491 35.3134C56.7731 38.6298 53.8391 41.0203 50.1472 42.4854C49.5467 51.4929 51.5571 59.8603 56.1781 67.587ZM123.659 38.2474C131.539 37.0523 135.288 32.4884 134.906 24.5556C133.842 20.7124 132.647 16.909 131.32 13.1458C127.361 6.19128 121.765 4.50687 114.531 8.09282C111.278 10.3774 109.54 13.5288 109.315 17.5467C110.461 23.1581 112.254 28.537 114.694 33.6835C117.097 36.4179 120.085 37.9393 123.659 38.2474ZM42.1603 37.9214C47.9158 38.5483 52.2078 36.3752 55.0371 31.4015C56.6909 26.8773 57.9405 22.2593 58.7861 17.5467C58.5866 12.35 56.0875 8.76404 51.2882 6.78883C44.5411 5.24557 39.7056 7.58199 36.7814 13.7977C35.8692 16.8605 34.8913 19.903 33.8474 22.9256C32.3086 30.3935 35.0794 35.392 42.1603 37.9214Z" fill="#E30613"/>
<path opacity="0.905" fill-rule="evenodd" clip-rule="evenodd" d="M62.6983 111.922C63.4667 111.976 64.2273 111.921 64.9803 111.759C65.5779 111.596 65.9583 111.216 66.1213 110.618C66.3387 108.445 66.3387 106.272 66.1213 104.099C64.5813 102.453 63.0599 102.453 61.5574 104.099C60.9054 106.38 60.9054 108.662 61.5574 110.944C61.9306 111.315 62.3111 111.641 62.6983 111.922Z" fill="#E30613"/>
<path opacity="0.9" fill-rule="evenodd" clip-rule="evenodd" d="M103.121 111.922C103.997 111.976 104.867 111.921 105.729 111.759C106.327 111.596 106.707 111.216 106.87 110.618C107.088 108.554 107.088 106.489 106.87 104.424C105.941 103.01 104.691 102.63 103.121 103.283C102.474 103.713 102.093 104.311 101.98 105.076C101.763 106.706 101.763 108.336 101.98 109.966C102.164 110.744 102.544 111.396 103.121 111.922Z" fill="#E30613"/>
<path opacity="0.926" fill-rule="evenodd" clip-rule="evenodd" d="M79.9762 110.292C83.0536 110.437 86.0965 110.274 89.1041 109.803C90.4795 107.947 90.1535 106.425 88.1261 105.239C87.7046 105.08 87.2697 105.025 86.8221 105.076C86.3002 103.032 87.0067 101.728 88.9411 101.164C90.5496 101.435 91.3101 102.413 91.2231 104.098C92.0169 105.638 93.2668 106.127 94.972 105.565C96.1792 104.458 96.5593 103.1 96.113 101.49C94.3471 96.8313 91.0327 95.1468 86.1702 96.4375C85.4898 96.6956 84.8919 97.0761 84.3772 97.5784C80.207 94.9835 76.5125 95.527 73.2933 99.2084C72.6358 100.371 72.2554 101.621 72.1523 102.957C72.4451 105.28 73.7491 106.15 76.0643 105.565C77.0951 104.666 77.693 103.525 77.8573 102.142C78.8258 100.971 79.9123 100.863 81.1172 101.816C81.5462 102.856 81.7092 103.943 81.6062 105.076C79.1029 105.245 78.1794 106.549 78.8353 108.988C79.0602 109.591 79.4403 110.026 79.9762 110.292Z" fill="#E30613"/>
</g>
<defs>
<clipPath id="clip0_125_763">
<rect width="166.91" height="166.91" fill="white" transform="matrix(1 0 0 -1 0.921875 167.831)"/>
</clipPath>
</defs>
</svg>
